<mxfile host="65bd71144e">
    <diagram id="HIP3nbAZw_EuaXWnEj3U" name="Page-1">
        <mxGraphModel dx="1532" dy="396" grid="1" gridSize="10" guides="1" tooltips="1" connect="1" arrows="1" fold="1" page="1" pageScale="1" pageWidth="850" pageHeight="1100" math="0" shadow="0">
            <root>
                <mxCell id="0"/>
                <mxCell id="1" parent="0"/>
                <mxCell id="8" value="http://ics2o.mths.ca" style="swimlane;whiteSpace=wrap;html=1;" vertex="1" parent="1">
                    <mxGeometry x="-790" y="270" width="600" height="330" as="geometry"/>
                </mxCell>
                <mxCell id="9" value="&lt;font face=&quot;Lucida Console&quot; color=&quot;#93acb8&quot;&gt;&lt;span style=&quot;font-size: 36px;&quot;&gt;Radio Button&amp;nbsp;&lt;/span&gt;&lt;/font&gt;" style="rounded=0;whiteSpace=wrap;html=1;" vertex="1" parent="8">
                    <mxGeometry y="20" width="600" height="30" as="geometry"/>
                </mxCell>
                <mxCell id="10" value="&lt;font color=&quot;#cce5ff&quot;&gt;&lt;span style=&quot;font-size: 22px;&quot;&gt;Pick&lt;/span&gt;&lt;/font&gt;" style="text;strokeColor=none;align=center;fillColor=none;html=1;verticalAlign=middle;whiteSpace=wrap;rounded=0;fontFamily=Lucida Console;fontSize=48;fontColor=#93acb8;" vertex="1" parent="8">
                    <mxGeometry x="-60" y="100" width="355" height="30" as="geometry"/>
                </mxCell>
                <mxCell id="14" value="&lt;font style=&quot;font-size: 14px;&quot; color=&quot;#9999ff&quot;&gt;&lt;b style=&quot;&quot;&gt;Show Value&lt;/b&gt;&lt;/font&gt;" style="labelPosition=center;verticalLabelPosition=middle;align=center;html=1;shape=mxgraph.basic.shaded_button;dx=10;fillColor=#E6E6E6;strokeColor=none;whiteSpace=wrap;fontFamily=Lucida Console;fontSize=10;fontColor=#CCE5FF;" vertex="1" parent="8">
                    <mxGeometry x="60" y="190" width="100" height="60" as="geometry"/>
                </mxCell>
                <mxCell id="16" value="&lt;span style=&quot;font-size: 12px;&quot;&gt;-2&lt;/span&gt;" style="text;strokeColor=none;align=center;fillColor=none;html=1;verticalAlign=middle;whiteSpace=wrap;rounded=0;fontFamily=Lucida Console;fontSize=18;fontColor=#9999FF;" vertex="1" parent="8">
                    <mxGeometry x="85" y="260" width="75" height="30" as="geometry"/>
                </mxCell>
                <mxCell id="19" value="" style="ellipse;whiteSpace=wrap;html=1;aspect=fixed;fontSize=14;" vertex="1" parent="8">
                    <mxGeometry x="140" y="160" width="10" height="10" as="geometry"/>
                </mxCell>
                <mxCell id="20" value="" style="ellipse;whiteSpace=wrap;html=1;aspect=fixed;fontSize=14;" vertex="1" parent="8">
                    <mxGeometry x="20" y="160" width="10" height="10" as="geometry"/>
                </mxCell>
                <mxCell id="22" value="Positive" style="text;strokeColor=none;align=center;fillColor=none;html=1;verticalAlign=middle;whiteSpace=wrap;rounded=0;fontSize=14;" vertex="1" parent="8">
                    <mxGeometry x="40" y="150" width="60" height="30" as="geometry"/>
                </mxCell>
                <mxCell id="24" value="Negative" style="text;strokeColor=none;align=center;fillColor=none;html=1;verticalAlign=middle;whiteSpace=wrap;rounded=0;fontSize=14;" vertex="1" parent="8">
                    <mxGeometry x="160" y="150" width="60" height="30" as="geometry"/>
                </mxCell>
                <mxCell id="25" value="" style="shape=image;imageAspect=0;aspect=fixed;verticalLabelPosition=bottom;verticalAlign=top;fontSize=14;image=data:image/jpeg,/9j/4AAQSkZJRgABAQAAAQABAAD/4gHYSUNDX1BST0ZJTEUAAQEAAAHIAAAAAAQwAABtbnRyUkdCIFhZWiAH4AABAAEAAAAAAABhY3NwAAAAAAAAAAAAAAAAAAAAAAAAAAAAAAAAAAAAAQAA9tYAAQAAAADTLQAAAAAAAAAAAAAAAAAAAAAAAAAAAAAAAAAAAAAAAAAAAAAAAAAAAAAAAAAAAAAAAAAAAAlkZXNjAAAA8AAAACRyWFlaAAABFAAAABRnWFlaAAABKAAAABRiWFlaAAABPAAAABR3dHB0AAABUAAAABRyVFJDAAABZAAAAChnVFJDAAABZAAAAChiVFJDAAABZAAAAChjcHJ0AAABjAAAADxtbHVjAAAAAAAAAAEAAAAMZW5VUwAAAAgAAAAcAHMAUgBHAEJYWVogAAAAAAAAb6IAADj1AAADkFhZWiAAAAAAAABimQAAt4UAABjaWFlaIAAAAAAAACSgAAAPhAAAts9YWVogAAAAAAAA9tYAAQAAAADTLXBhcmEAAAAAAAQAAAACZmYAAPKnAAANWQAAE9AAAApbAAAAAAAAAABtbHVjAAAAAAAAAAEAAAAMZW5VUwAAACAAAAAcAEcAbwBvAGcAbABlACAASQBuAGMALgAgADIAMAAxADb/2wBDAAEBAQEBAQEBAQEBAQEBAQEBAQEBAQEBAQEBAQEBAQEBAQEBAQEBAQEBAQEBAQEBAQEBAQEBAQEBAQEBAQEBAQH/2wBDAQEBAQEBAQEBAQEBAQEBAQEBAQEBAQEBAQEBAQEBAQEBAQEBAQEBAQEBAQEBAQEBAQEBAQEBAQEBAQEBAQEBAQH/wAARCAFdAssDAREAAhEBAxEB/8QAHwABAAEEAwEBAQAAAAAAAAAAAAkEBgcIAQUKAwIL/8QAdhAAAAQDAwQHDg4NCAYFCQkAAAEFBgIEBwMIERUWITEJEhRBUVVhFxg3VFZxgZGWobHR4fATJCUmNDZ0dneUtbbB1goaIjVERUZXdZWYpLMjMjhlZqXS8SczQlJkhihDU4WmGTlHZ4KSosfmWGJjcoSyxcbi/8QAHgEBAAEEAwEBAAAAAAAAAAAAAAEEBQYHAgMICQr/xABPEQABAwICBAgJBwsEAgIDAQEBAAIRAyEEMQUSQVEGEyJhcYGRsQcUMjRSocHR8BUWF0JykuEIIzM1NmJzorLS8VOCs+JDwiRUY4OTCSX/2gAMAwEAAhEDEQA/AJVue9sOoCc7qi+qY8z/AEI0fg/9llh8K1d2Ubtp/wDX4lZEblVKsPFHzga92eproQZv8dIsiuqqTpxwxPNTz1HwCR4EaMjpHP8A+3q2rg7wmYl8GCIvYWO3d/lWFPXr5hKnJpPUKXKyVNSns6SnFw0lWTv/AAp1uTlFX9ClHd6/xU/SniN3rHvWRrCpFZrduZ2y12CrE02TkMo5zbiXclmRGRGeGamOBGZEcREZaS4cA+hSjE6piYmTE7pnNT9KeJiYMTEyIndM5rHUjeumJ6clU9PperTczN+p8jIyS5lVWUexmp56zwIPoUo+j/Mfeo+lTEbvWPer8eFXKnsFOlld8XcKgs5LmcCk1lz5cSkkjwI9ODUPA8DI8D3oiMtGkPoUo+jnlc+9PpTxO7PK496JNW6sLk5kdHu31CVFQkRHcG4pPLqqrEjuP8f+1T2radHKH0KUfR/mPvT6VMRu9Y967/PGvH/2T6x+k/6jXfDmp/kH0KUfR/mPvT6VMRu9Y96taQrhUBVyDk+7+95rOyRWVBq7i/KJHbntiX2761CPw4cBB9ClH0f5j70+lTEbvWPerD57b+W9A5nE1urHqq09rNXVj3g+hSj6P8x96fSpiN3rHvWUJGptYFVSVEdPuz1MVF5vZHy4iyUiu5WTs4/a7nF61NO/y9YPoUo+j/Mfen0p4jd6x710LxrhUBgblz4u/vdm5W9g5z4pWUeHU1NfnjqD6FKO71/ioPhTxEG2w7QfauhRLzSw6lmVb7XpO4V5eVfYKMirmVVZR5fapp3/AKC0aaM+BGjfnOft8r1KcH4UsSSbGRMC1v8AN9th027R03hXOwFEkB70YdjOXTLKORnPPElKplrxIyahkZGWkuEjxIPoQo5f570xvhRxIMapBNiDE9GWz17cr9YlXolBcUpVHb9L1ZUVFaeyfIoqKuZVVlH/AMK73CWOku2+hGjHtm/9X4JgvClidxkZZZR0Rf1DLO1Iq3qFBDUppHWKXqyWqJM9k+eRZ1cyUrJyyWOnQ1OH6C5BI8CNGQOfr779HqTGeFLEyLGSRItJ9XRvkZ5XvKwrjUCYdWY8vd/e808tw5QzY1uzI+n8ns1PMxVjwKUYFp/3H3qob4UcVAuRYbt32V2jjqpVhnI804Hhdvqa10GU9nLS1IrqUk/NXVv6MdGnrPoUo7vX+Kn6UcVvPq/tVrtW8K8H/OZPY9D3Y8lQvwJsT2Vd73qa+uQpD4EaMnpO0+8dwVP9KmIFrbvJn/1R1V+fDAm5VPfND3YzJqbw3DJOeeyVlHrnmpjp3+AB4EaMjpG0+89xT6VcQbWvbyf+qpZG8a6J5tqjwT6LuGaa7eniT1xzyU96kpvB64c1NfX8ZCr+hSju9f4qo+lHFbz6v7VeTcqbWB1I8q4GvdnqavIM3pkVtFkV1VSVHXv5qcOvUfZIPoUo+j/Mfen0o4refV/airU2sCHkvOC7PU1LytPE35Ep6RXUrKKwf4g9qnLv74fQpR9H+Y+9U58KeIk227wPVNuhWvPXhXglJs0sK9D3YlpaSuZoTy1Oz3qSnPDiD2qe2nrH2ywD6FKO71/io+lTEbvWPeqVDvJuB1W01Ltej7hXppJkc4J/Is8aqacj6Ty+frUFGfAjRvtvM9fTl8ZpS8KWImIkk7tnYYjq5lkZKfFaFxNlVhHuv1YVEtWkcoSM7JSK8qpKij9yhdnT3g+hGj8H/srkzwpYgN8kzBAHSOruCxyq3k1luKU0juCl6sgqiTPZPnkVaXMkqydp96nKKc+BCje5zsfg96tzPCjiNYiMydoPNut1gx0rtFW8K4EOTQVBYo+4ktLcMhlBDnZ2eyUkuJH/ALO+tTWWO/yAPAjRn35D1+/mVypeFHEhtxsyAJsZ3Db69q554VYyDKujmXuLIM3PZvyK1u7FJUVgvxB7VC7OHaxFSPAtQgZev2OjsUfSji/Qd2Lhcr8sNVSyO6KYOJBVPvhuJanslKxatPtU8+sB8C1Agi1/tf3J9KOL9Bw593Oqqeru4JHIOUKTuGUzskcoNXds97Yj4G761OHHrELafAnh5N9pzmeu6pvpNxO1pJ2+V7BHYi5XdYaqlNN90UvcLXXpT2cirU9kpW7Rdbe4CEfQnh9/f70+k3En6h/mVVbVwcFg25V4TFJ3DLNebnsnyLo3d6kqKx74c1OXHwaw+hPD7+/3qsHhAxRAPFm4nYrokXjVhVR84E+7vU2aQZuQ3flqSkV3JORu5Tg89AfQphxecr7dnWn0gYn/AEz6l0LcrE6HipEjtik7hXl7XkVFnsqq3W0tTy9jVx+iWiLTlbI7OtR8/wDFeg7sb7l3zjfFUGcm5YeFB6hNdLL1Py0tSK6kpO/wNTT58IfRLR3+op8/sUbFrgDYnk5HqXaZx1gydlfneKnZL3DlDduRF3JPzT4OTkEfRNS5vX7lXjhawiS4Am5EZE5jNWGlVwWFxSlUdHpurqipN+p8iios9lVWUSLs8vlD6JqW0iNufuHeE+djPTHZ+Kud1P8AfDA3LnxRd7s05vRI5z+pWUd7qU7x9sTU8FWHABkdUzcTzbvcUHCxp+s346YVnc8LL9R81+vj8YtlTwVYcHPMzkdhFtv4c6k8LGA+UI7T7uv1Lnm/H1LTf68IVQ8FuGgX2Dd71VjhZQgS8djveqnm7n1L/wB+RCfouw2/u96HhZQgw8djvenN3PqX/vyIUh8FmHk8sj4+0qf50s9Idv4Kq5vH9lv78/8A8h9FmH9M/H+5T86G7+/+1c83A+pkv12QpT4L8PJ5Y7PwPeV3/OlnpDt/BObgfUyX67IPovw/pjs/BPnSz0h2/guObf8A2W/fPKH0X4f0x2fgnzpZ6Q7fwVXzaT6nz+PkH0YYf0wer8ApHClhIGsLkDPf1JzaT6nz+PkOB8HuHBI1m2MZn3qq+W2G8538oe9VPNk/s9/eAfR7h/Sb2n3p8ts3/wAwTmyf2e/vAPo9w/pN7T70+W2b/wCYJzWv7PfvvlA+D7DgEhzZGUEz1XQ6bZBv/MD6tqqua3/Z+L4+LeeB9YEgNkAwDzDLauB0tcxv3/gnNVPqf/fovGB4IVoMs+O1R8rc/r/BOaqfU/8Av0XjFL80qno+r8Vy+Vxv9TVzzVD4nP4+QDglUkS221Plcb/U1VNhU3+p+TAp7r7/AINPJjrFX813+iO1PlcbvW3+0pzTv6m/vAPmu/0R2oNLiRPe3+xOad/U394CkPBl0n8Pcqr5Vb6Te0+9VXNG/qeL4+B4Mug/h7k+VW+k37x/uTmjf1PF8fFH813bu73rj8qg/W9bR7U5oB8T/v8AF4w+a7heMuj2FSNKiRyto+s33pzQD4n/AH+Lxjn8iVRbVNuYe495VeNMMgXGQ+q4+xVWf3/Afv8A5A+RavonsH9qn5YbvH3He5M+f6u/vEcfkd+49n/VPlhu8fcd7kz5/q7+8Q+R37j2f9UOmGwbjL0XD2Jnz/V394h8jv3Hs/6qkOkZJuM/31V54nxefx4vEIOh3wZBy3f9VHyjzj+dM8T4vP48XiHR8ku9Eev3J8o/vM+8feqmwdev1P6/p7rY/R3w+SXeiPX7k+UR6TPvH3pnX/V37/5BPyTzer8VUjSQgcpuW9v9pTOv+rv3/wAgg6JsY3bvxT5RB+s37zf7VznIfSxfrAvEKX5JPok9f4juCjjx6YHZ7iqnOQul/wB+h8YfJJ9Ejr/E9xQVxI5YPNv9S5zkLpc++Kn5NO/+r3FVYrNAA3CNvuXGXIelvD4gOjTB/wC3uTjm/E+5VWXP/wAD/wCIU/yW70vWPcnHN+J9ypcuQ9LeHxB8lu9L1j3Jxzfifcvzlb/hw+TXfDh71TEySd5lMrf8OHyc4X3X8obOtQmVv+HHHi+f1fiirN2/8N5/+8HF8/q/FFS7uPpX/wDd4hS6jt3d71UKq3Zy/wDwiQ1wIttG0e9E9H5O95RWCwA3AIno/J3vKDsj0HuRVXo0Pnj4hQuzPSe9F+RCICuC7AEUL4+g2pWz1SRe4Ai3x8QV4ywuIw5Ia5oGU5zfKLTfcLd6leVmxeOcV1G5zzAbCplvNSUjUg102AoLaTk6E17FuxOI8TModEWJxYYHDFoMixMBVMAQTOQLSRvt1A9kLJ6DMMWSWGYcQYI6TBETEXzyACyYottpvK8+xp5/Qt59P2g91mF+1tNPtIVNMcFXG8cELfRXCUVnFC5I7Ijjjgs8LQoiggxMjjOGGp/Oz5XPcjOJ1YJnmM7ea6t5fhtYmxuSZBIm5ANwTNgTa5OwSY4+e2vD80jmsc0915e3dlDcWW13NLDVkDN7HM/NXkxw5d4R+e9L+ZvvXDXw+4fHWt/51VpFSy+EgVIn4kunKbXe7rC70NcOQgNLpbUeoSGW2XzwKGAjtYYYiPCGEodv9yUOBYT+dB8oQR6TYEjpJtPObWlctfDB1wII3GBrNkbSYaTzkxK0xvC07vLU6QjhqO+nBUamLgW4VGSeaK+Vx/0/cKtEcRQuE4dZOgzgiIjPDE4YiLUYj89v/mb7+cLjr0Nw3c1ueedZavlPd8Md30Rt2e8XYzpqbusUgT56dbC4upOUcTc2jRhqLQW+f+0ZxYmB47fu+s3dzn42WU61DY0ZDIHdznt2brLsr2dWqsITXusmj1RqCmZx3dkZSXSknStpJuFZy3Zw5echlgZnhCR4xYmRREX8woSKTx1r7PSbvPP3W65Ul1C3J2bje57N1rdcq7FupVrSBt7GpUWK2xk0JsvAnAWn+URolawhcenXpgwhM/8A7ug9ATWGqdbZPlN9I86kuoDUOrsnI56zudW0m3fklPv+LzaUZeCzpm1VtWrbOTkZ7ZGhp9aGVRLOCI4CIzL0aKGEzhw1hFWY1pH2miRnIk7rhJoa0apIzs0glucgHe24lZHow637XOnF+l3M52SrNeL4fdN1xAc0084mEjpKQS1aREZuOAjhl4M07OKDbx7WHbx2dkUW3tIIYn54zyr5+W29xsm+/ZkuHG4a8ls9I33EbTtzEQc1opX5q1gats2Jeq9WEqqG68sZDyLVQ6p5P39GJetrDRp048PBH530v5m+wz7VBqYaD5JtlIvzWP4rONwttq7kXK1p8jZzrchX6RqbSkarQzlkmpNPVlw2kMTbjNftcCM3ZHg2cbMytyisCOxK0tMLKOnirJ2ZybAD8DllFxvC5YJ2HuIh15N2iOc23xMxe6/d4NuuJ3qNOrsbWl119vu7syXbE+nw5tqkwq0cZWa+vRN6Nzfz2wzSKys4D0nERQQQ4kUJBq1ZiCSJGzZJPRF5yiDNwVGMdh8g0lwyFzAuT0bSb2uVhS5r/SmoRjq5oqR9AAVZEDb+7H45Hf2qcCcOSJadaRNj37YjOe5bO3pm4kVuSFS8ayJeWNz09e50wr4jyZwER5vOGNuN19QFBgeDvhKEiOKHA4Dg+7jiKMw1au7bB9UEnZM83RKnGHD25JJkTZxta83u4nfO7OFs5JnaWuyXOiXkrQ7CY53uEpCb3Zk/COKljZKzjwIjMis7U4LQ4tUvtduZl6HiVVrVcoHkg3ifJk+pVAfhobb6jdv7gJGXV7YutAqxMC8giM/0eoF4BvP1rzS6jp+bEnX03+WWDX95vmWB8pkeBHr04kI16vNfo9hn4soNTDRkMjtB7RE+9ZYvPvZ70WdjYumUIUVZithpoTQT1iJmzkCU7agVFcsNmUS2vOOGGGIoI4rOG0iKKKI4o9JntYbOGCmLaokQbG+RBIm/fHMug1MKOSQ4RYgC0ieq0wIi3Wtaa7MO860E9sz14exekSdBPK7fbE28nYTrigOKHbOAkCEnZjDtocDhKIixhMoixLSI1au4gHaQAO3m2qDUwseS6DMS2Ad98uncpGKWWKcz2dRu5ivWEMuV4Kj7xeD5nttiSbUiokRuFgaSI8IoSbsZGX++WBmWkyq9erMQPV1ZnI2uVUh2HsNR1xll0WIyyWm9zl81Sbd5ij9MJ18PiVQ0moUbfnGVC61smptihcxuDBv2h+hke21bfCAj/nHhjiD6pIFrkDYgdh5HIPf6gJPVdVdP6l1Hc98pmNxyv57LjfkbzBQpyCrulbVEdNhhfrlIoYC0QwkRFgRaCIuTAR+eJu7M56zY6c59XUqfWoE5bcyD2nb6p5lmxGwqYtbIDd5mPQ5qaVnY8Ku05lI9EWd1PF8icMEB6ttHbFZQ7UzIoi0FjEUJB+egiZ2xrNMxnN5iJyUa1CCC05bt2/miclg+mkxBSe5zWKop4S7srktlRZjlieWLNoIJWq9UCMiIsDKOApiHSeJYaC1GVOW1QCdh222XIMxJnVi1zltSm/DgHYCSBusQ6L5XIPPvN1ttVtk11cTKu2zNLqzN+nCFKXdqbp6iirNbI6V5TWisoIs4SQCg/lMINrDtoTiLbF6FtvRITgLjFQ2kdrRGdrkR7FcGOwxbfVu0wCQc5G02nO0EZxBlRSvGwWJd1OiXdKwa8vyi4sJ66tZczryise+H8p+Hyin1K28fdPft9qt7HYfWIIi5i87Zn8IHPeyl3W0du1lo3Qm7kqwyko81u7QzqhUTWpzD7t5tyFwWThRDx04vJpWcEOgyLaQmZlFERAW1iMxkY5JG85q506mGgCwMQNxGY3Z3i0zbatT1yQn0q5dTlIUJaalVVKvTu9PnpOdItsnq5IBmRGfAW2PAj1GZ4b5iljE7zG61vUoNSlJsczlMdV02Qv8ApNun3jU2+QCCMTvPq9yB9KRY5jf71l9zyOVnzsbaf01T+mpGXLnvYdfWW9jvDnqVyBduW0Deef33VURhYbYZbhvK+l95Dhq1bs+rzWl4Zlemnw76AuqGQLa4O9vOA83TMtP85sFGeOBY6cSPAzMadc/WHTA+N29IwshxE3zMGYj2Qr9vJZHS7qLxpA39yTSXd6qLSBnT06Rngou80EjcOOgjxzocJYaNGnSY48VX3t7T7LdllV+M4cWgWtl/25lfLqYdX3WtXV52nFZUGnErJ0SptZz0nPVDiaqpHjZQ2m2hp8RGTmg2pnBt4jhh9Ehis/521KIaVeDduRycZ6r58yeNYfcMt2Wz0s1atPVYnPfZvEzDXS5yn0zN0vqAmSMotkbaV09ZiRmtAS3jEURtorUzzrO0P7qEozjxhOEjK1nB4gk3BzOXTzbM+dR4xhyTyRtPkt6d61HrEzq8NxklMVIrQ3n4g7uR0/IslXDP/wBV/e92C7HJpOPE8RvHZ+Cjj8ObBoJNhyWi561vtUynt59brHTty0yXl5DYMvTunahPrJPckpoyEKAiRG4sW7nURHtii/lMWKZRRGZmZ4mZ8jhK2zm9Q+z2LtNJxgh4Ahscq8wBv3rErWqXS9Xrredlmm5kemE3VdDs0GltS50yTUhNW4DhicMUMdpDBE2877QitIYzhhjM4CiIii+5ODhK177DBt/aALdWznTiX35YJOUEC5O4OAuJEZXWp1aGTXdg5MR6rqLgVEKZPd7XWZ1151NOfiMijwb7hxxIzhiI8DLHaxEeoyMWqrh8QAbusSb807do5+tRxL/THb7JlYHsdRdY/CLZUpVpPKgzJO3bZBQqG4dPX7yquX/1x9jwCmivvPa33qqFAwOWfvD2lVgRX5+1p9qcQfTP3h71UWG/2foFNq4jf3f3Ko8WqR5YHNf4+M0sN/s/QILcRBvsO7+49xUjDPt+cGe85dJ+OdVAoSzFSbjrmeuyqfEz6Y7R712AamK3j1+5PEz6Y7QvnLb3n/vBqYrePX7lPih9MWy5QsqwQaeKg3GR3p4q7/U/mHvQWt2ExUnljM7RvVUHQANbK2e7rVTY/wCpLrH4BHieK9MdoTX/AHv5vxVRY6i6x+EPE8V6Y7QuXL/e9arwGExIIOsLXsRNtyka0idbMb19bD/VRdcvCO3ximLFtxnYZ7diuAZIF9g2fiquw3+z9Ag4imQeTsOz8FPF8/q/FU4oTXpyeSO0e1OL5/V+KqA4+n6I9RTi+f1fiqmx1F1j8IpDjmgkaosT9Ue5OL5/V+KrxHjw9Efd/BNTn9X4oOk46nJsTz6rb+pVYomBn2hfOW3vP/eA46nB5J+6PYE4k8/aFWCmOLZJ6eb+4dw6E4p/pHt/FVAeNsNomej+49x6EFJ8i5PX+KWG/wBn6BEUjeBe+R29C7+Jd8R71UCCKQBsMjsKcS74j3rmx1F1j8IoDVEmxPUfcnEu+I96rw40bWnsP9qcS7fHZ70HHj2bx2/gq0YYwLn1e0r72OsuufgDj2bx2/gnip3n1e9cijlnN2fgo8Wd8Ee5djY/6kusfgCWbh2fggwzpE949y5/67/2foCWnYP5feqkYYkAyb9CrgJbB5I/l9hnsTxaLkm3R7185be8/wDeFPrH0T6/cuWsfQPr9y+gax9E+v3JrH0T6/cvvY6y65+AU/Hncez/AKqqFYwM+wKp/wCt8/8AeEGuYNjkdh/tTjjz9gVQKI4gSeQT2/2qOOd8R7lTh4wPQPr/ALU453xHuVQHjA9A+sf+pVUMhsQPGJ+ofX/aiBxPMe0e1TB3HsKrJbe8/wDeEGiYNjlvCQdx7CvoOgtaCRAsYyC70DVG4diKoHSbEjcSiDicj0FFUWG/2foFE4GTY5nYd6KoEQdx7CiCFcF2AIoV90WPTMn2j8Q+hmjdM6OxeCeG1mk6pyI5znJjqzE9fi7G4LSGGx7JolonKMhbm6umLTnujVusLfnrtN1ZkM+oPq81EOo6e90RFW1xKJNzjXiJuk4sCx16cTxMzMyxwwIrbo7E4IYyp+dBnWsSTzCRMZWAA9sZLjGY5+DpAUi2YEtGYnOI2e7oONrtVbU+hdV0x3K8vCutlWkFdoPZGlJso4Z5puCIol60OAzLE7OOGGIixLA4cYTI8DKrOJwgcfzgzIjXIsZBHlWtZG6Ms0k7BIgiZFx5JN8jc9Ky5a0IuxZxZ02F76mENHinCUDQyk146q5Jw0t8kHaQxG5yPQURwEZ6T2hY4Dj4zg/9QffP9yfJfP6v+q6mor3p/errcvKCvUVvUJZ6S1kdoUtheCetqSRElN+IzQUNwk3LSEmxjFFFHEUUZn/O0xRnpHE4Q/8AkG7yzkLD625DoydvaJsMvqbArzcbipdRC7BU+iUhWRp1telVVtpTkhKsDLas1qdoreiszNfgcTkOLBzWm0hiiIzhiM4IMYcSLCfGcJBHGjMHyzFp/e5+9PkwgGCZzAixImPqi+7pKx5fDqOyKgL1G5hoOhIXpVvUCpwz1zcOPqcrtw3NnCgHoLSZYY6DwPHAzwxDxjCbHzYfWOcXydETlGxWp1PSAcQ2kSAYu0Tz7d+XNsGS/F56ojHe7dux2DXcqOuTTKoIjNB1RSB/dICuS1ZwmhWhbWHCMtrtCIjjL0OCA9tiZwwjiMLA/OZD0ja5O/nzPRlCamkTqjijYQeSPSJtEmIO0TM7IVReBqIy3RQm6Q2EFzo6ouMCn7vkHmip8RmbeVMsWMMR2hRERQx+iwWpEUJxQ+hlAe22xxQwwcThLfnYIBnlbdZx37iFX8VjiG/mSYbcxG0nuI7ti2FdF5ml85dRyunOeSK8U7aWNGgDpRSLaqyaz284HKZr56yM4myccRnoxxLEjPGI3jGDt+eM2mX2OfPItAjpuLIaONIg0XXsbDLKZ5hFoWJLty7TBUu+XlKUPeqzKpkqVDnqcQoc68stEkwk3S222M25FAeBxQlARQbYzijI4odqRxwTx+FuONIkz5Ttk7p37RPPnPR8k1DMkiTN3xv2AnecxaLbjr9VKmjAYSYlKLQr9TSq83OTxp89IM2RW0o03e1uSKMtPXPlEcfhR/5Z/wBxj2J8kPBFycsn2z3GCVniizqpe+LuD7u7uipDeo28ZuoqRVBrOhzxGTTcRmgwtskBwr7Z0No9B/dHph1FiURiPGMFEa7cx9Y7J263P19QVaNGECAYy2bufVJ6pIO3ILaBUrPScqNvNkK94GmbovPxUrWWAdaJNEX4mm4Wjl2CGFgw1DOLBxOcoYNLuhhKE4jOPREcRxz4xg7cttsuUffnz80boHRhIzkgWt0mPIvc5k/hH1djeDaZFf6QO9xrEihNtvvRKn1haUTOGBOSjhMoSjihhiihgOIy2xlDFFhtsCM9By2vgwQdYZgyCZjmggexWsM0g1/6M6odsaJ1QeoTGWyVkmklfkCmVfqjrCvMSi7RurK48W/UaS4xZ7jX3KeXz1H1yLWesxHH4TMuHTrH2kjtkKAzSLiA6mSCQDyRkTfOdnMehbYWNbqIR39F172NUG9DTCbolA0pJ6TcZ5JyxAxSbxYxbUjwPD7qHAiMjihPAjxE+NYQGRVGRHlHIiMtbd71dxo1wvrHIgyN4IOQO/eetaOvGi1Lmc21R0N+9RRt+LyT6fkWu2JFdJWUfPTv6+TSI8Zwn+oPvu/uUfJh9I+v+1bA1AclCb3cm1nw4KzN+hNd0tro7efEk/5FbJpvEm4WlwN9xNuMsYSix/m6SxhIoD2pmcHEYI/Xb94+/wCM1HyXz+r/AKLsnFO0IsKfXYKAqFeGS8ZVq1fVXfUZ5NnLmaaY0HEccR+uFyken7oii/lIoT2ugocDiinxjBwBrtzO07Y575ZEd6HRsCc9WXZZ5W8nm5undbFTNkCrTbVec6vTipE2mU5k3SRNZsSUihmkm0G4WGqJrRH/AO9FFFp0mZ6TnxjCm+vn+872FU5xGMBIFIwCQORsFhkI7F3s5UyiUjf+ZtZkJ8t6Wp24VtIfq5PlFpZyu4kEycKG44oYLPaxxufCOIoYChgjM4YTiKHbRScRhJnXgZ+U62+2tED182Sg4nFkmKRg72THNzx1TzLXanL4Z6Ve0QagqDgSJVnSlcM4J5ZPQk5Hz+0L+OB+DhMQMRhbfnOvWd/cqLU0iTPFWN/JEwez2dSvFvVvQGDfWVqvoq1KKTOnKwvGfnZ+SLbbvaDjXjJwxbUywPBrGR6dBlrLfDxjCDN8jaNZ1xt2rk2npDWbrUpGsJGrEibiRlZd9fJqbThcV2HTCjC/JrtJqUNZYyGsyJ7ZIUHg41/ORwnjgWnAtJEWjeMy0joOKwmyq0gZSYt0TZXX5McQOSTbPVInb3krLNWkuh9d2td/n+eeo6y1NjURZ9P1tGc8kuKqrIq7dKGM4y2pmcJbeKKE9vtYjihiiItqcMUXE4vCQTxjZjfuy2qfkx25187Ots59m7sWiLxSkdtuRUbyM8G88ktI9guZsY5JUfo5ccCFtOlhJgDP0j71x+S3bA7mIaO0clbK1wq2gT0ndVWKfvCTmXRTKiDPT56dRJ7A26724v6z16ccdWjVhpD5XG4c/KPvXL5MdI8vnkWz6MojdtWYLy9eqXVYoHTtSa8+jJlUViokL+qMz5IoStE93Qodo3V9bPawQ/ybuJBMrLGIz+6j2xbbbR2g6YG71vPX17VcPk4wJJnb5We/bc7V+6p8xi9OotirFheAp7SZ0TTWSECojMqDlw1hPV27i3MvN37mEnJtdMMJHjjDDCcUZxHFhB0wDs2fv+2fjYnyad/9XuSKutJli9Bd1hSF+GXo1QhPaDNknkuSOSoVMm6Rka7FjjoN06DLAy14keOApflgztsdgnb0gHm7EGjn25TgBuLcugx2GN1l2N368XTJrLNdrCpqhJzaHnzzbqd7a0isyUKiN9wOM0BChwgtCitHiUJHBDFCRGeMO3gKKKIBpjeDsi247b5ETPUdkHk3Rz9rnG4IuDJGwwQdUzeL5QsVNyqjfVbt96BHeDolM/KhVHZ7wQ0Sd0KziWMv+uLz3sMRHyuf3u1vcRPQM+ld3yb9rZ6/93+NsLNVVkykFYJKhDgK8XSpoSrHo+z2c6ZGcNaVXanq7dIojibjfbrZhwhKKI4cIjgiIyMoYDgKE4p+VidrstsbOYCezPfKn5OgjPZuv2O7e05q6W9eDpO+r0FRnfMOmWZjNVqIqtMUN0PI9qaisQIcLeJeceGnantShiIy+6gM4TPSI+V3bzkbAGBbnE9HPuVSMBtgZR5JvIgmx69nMFqI8aO04ZzVmlhv3kKTvxUlMj4NhsSK7lVRPHXo1cHKI+VnR5Ryyj1ZKfEL5bfRj1zbpjqWba1Vvb1jeJp1U9gueTVZRqNSkBT82jT2JHC3MScTfMjxxxLQZGRl2BbjpKpJInp29/YuYwL7cqOsmI5w4eoLqX8zqM1KrTVifbFeGA0UNVWkZfZE85pJZzVU4nDD640EzwsoGybNMsPuYYC20RHtYIMThDSVSRuBGc7+YnpUeIv3nbYH1Al+3IE9a7OqLxp+0LvbXoGgVESqrOGVqLn9PuVt5aNrMxFhii2qA3jcUVoRkWMUUBFGZQlaHiW2MyKpxGlNZhaADbovFzlPq/EME+Lzz8q4z2AmRN5F4IgZrTuwt5fpjlLwl9Pb5NGMYjGvc82Jve57uuI23ysniT5Fzs+sfi22Y3bFV2FvLlbeyOt2O1jpPVrHHxypuHafeqoYN0C57CfXF1VbolemD74g4ypBsMjkST6zHaniZ3nsPuVTYW8v0xw9/l4dHLwC3GtVk+VmfjJVIw5gcr1u9hjsSwt5fpjh7/Lw6OXgEcdV/e+OpPFz6Xrd71Wej/8AEd/yhx1X9746k8XPpet3vXzDjqv73x1J4ufS9bveqyW3vP8A3g46r+98dSquI/f9U+1fQQa1WDZ2Rzy67J4v+/8Ay/iqgW4168mGnMqPFhvH3B71UWNvL+g+yOTt73Lo4PKI4+v6J7YQYYSLjqaJ6rqqsLeX6Y5S8JfT2+TRHHV/Rd94+9XQUhAy7J9e1PRrDzw8QcdX9F33ne9OKHN90e9dpYW/nw+DHHDzPXSF9UknVNzze5TxfP6vxSwt/Ph8GOOHmetrVfRPq9ycXz+r8V+h0EVZPI/ln/0Ti+f1fiqgQRVg8jZ6P/Ud46U4vn9X+VVWFv58Hhwwx8y1URa+TyDmfqc/Qqrkfu+pPRofPHxCNV/oH7n4Jydmr6l+R08RV9A+r3qplo2jtCrJbe8/94OIq+gfV70kbx2hVfox8vaIUxo1QSNR1uZJG8doVSHFVfQd2JI3jtCWG/2foDiqvoO7Ekbx2hVAcTV9B3YkjeO0Lmx1F1j8IcVV9B3YqlV4g0asHkOyOxSLEdIQWs4XESfzTzfOM+dVfHUvTb2r72OsuufgDxbEf6T+xONp+m3tC5EeL1v9N3q96pCDJuDzyL+tdjY/6kusfgDxet/pu9XvQAyLgc8i3rXAnxbEf6T+xVfG0/Tb2hdgIOGxABPFPsDsTjaXpt7UFuOI0kCR4vUsSPJPuVQH0yASW36D7EEeMaS/+vU+6fcmvT3t7PwX3sdZdc/AKY1NKSf/AI78/wDTHtCnjGekFyGvpT/67/uAexOMZ6QXYCn19K//AFz9w/2FRxrN/rHvVOGvpX/65P8AsP8AYE41m/1j3qoHHx/SIt4qbW8n3BVXjdL4KAcfpEggYUgmwhpnuQYulIvHWubHUXWPwinJ0sSTxD732e1s9qqPGKW+n8darwnS3+g/+X+1PGKfpU/jrQJ0t/oP/l/tU+Ms9Nnb+KATpaD+Yf2A+rVunjLPTZ2qoFKTpST/APHf90H/ANFHjNHe31/2oE6U/wDrP+6P7E8Zo72+v+1VFhv9n6BPjelRbxd1reQ3+1T41T3j7zUsN/s/QHjWlDY0HQbHkNyP+1PGaZtIvbymn1TdVA6OIxVQyaThM7DeJkmRshVwbTA1gRe5vc88AnuGyy7AdgZVaNWDbmHtUa4FmiRsM/hvUe9d3w6GrUhUR2+oyqWlykijnuKSQ0LeQNRmZcnj4B6n8Huhsfi8I4urFwIs7WkRcZ+yc+fPSXDLGaPw+MZq0REj6u6OYdwtzLEvNaqFx/8A3GhDP8JwSxja7nmpAMkEuAaAJ+tO3pv1LqbpXBVcE0cWBaLjbEgxEbehVXNZqB1Q/wBxIQ7zwUxZJOvM7dbPnzVv42kdnqn17U5rNQOqH+4kIPmni/S/m/FONpbv5VU81uoPHBfqJB8YfNPF+l/N+KcbS3fypzW6g8cF+okHxh808X6X8/4pxtIXjK/kpzW6g8cF+okHxiPmnjPTHb/2XX8pYL/T9QXHNUqB1Qf3GheMPmnjPTHb/wBkGk8DI/N9oEdarLCqj444/uNC7H06+twB81cV6Y++Peqz5YwX+j/IP7V2lhU14ccSn6jQuto75F2eAPmpivTH3x70OmMEQQKNyIHJGZy+qu+sKjOi31KEpho1oaH/AJB81MV6Y++PerearCSdUXJ2fgu0sHw4OMJT9RoXD5eTsazfNXFf6g++PeoFVkiw7PwXaWDxcFvo3RJn/wBxoXnr5NQn5p4v0v5/xVSKtOBI/lC7TOtwdMSf6kQ/GHzTxfpfz/inG0heMr+Smdaz0zJ/qJD8Qj5p4z0x2/8AZdfylgv9P1BcZxq/TMp+oUEPmnjPTHb/ANk+UsF/p+oJnGr9Myn6hQRPzTxfpfz/AIrs42kbxnfyV+s43D0xKfqRDD5p4v0v5vxTjaW7+VM43D0xKfqRDD5p4v0v5vxTjaW7+VfnONX6ZlP1Cgh808X6f834pxtIZi22yZxq/TMp+oUEPmtix/5I/wD2fiuzxvADOi2dtvwTONX6ZlP1Cgh81sWf/JP/AOz8U8bwH+i3s/BM41fpmU/UKCI+aeMN9cX/AHp/9lT/AClgv9P1BM41fpmU/UKCHzTxm14+9/2T5SwX+n6gmcav0zKfqFBFP808Z6Y7f+y58cDcRBuLOyXOdaz0zJ/qJD8QDgniwQS8QDJvs2/WTjhtjsKqs61fpmV/USF4hcRweaAAXNkZ8kZpxrPRHZ/1VLnWs9Myf6iQ/EHzfZ6TfuhONZuHZ/1VXnWr/wDbynxBB8Yj5vM9IfHWufjPxH/VM61f/t5T4gg+MPm8z0h8daeM8/x91fjOpwdMyfxBD8QpjoKnJ5Ts96eM/Hw1M6nB0zJ/EEPxB8hU/ScOk2608Z+Phq/edbg/7c/iCD4xPyEN5+6Peu/xk7j6l+c6XDxgfxFD8QfIQ3n7o96jxgbG+pvuX6zrcHGEp8SQRPyCN/qb71TnHOk8r+UH17UzrcHGEp8SQQ+QRv8AU33p4870v5AvznS4eMD+IofiEfNthva9/JUeOn0j2H3qmzxcHGH7ihh822C8C18o9exPHXekewpni4OMP3FDFMdABxiL5R0J484fWP3Z70zxcHGH7ihh812uHktPWTHbtCnx93pfyhM8XBxh+4oYfNZvoNPWVVjHWF25DPPrsmeLg4w/cUMPms30G9pQ46x5Tcj8ZJni4OMP3FDHWeCbSSdVt+lUR0iJMl+ZVRni4OMP3FDD5pN9Fvr96fKTdzvX70zxcHGH7ihh80m+i31+9PlJu53r96+meLp4w/cUMPmk30W+v3qRpJsiA6ZEZ+9UeeLn4w/cUAcvmm34B/uVZ8pP5vj/AGpni5+MP3FAD5pt+Afa49xT5SfzfH+1VWeTo46/cEEPmdS/d/l9yfKT9w+P9qZ5Ojjr9wQQ+Z1L93+X3J8pP3D4/wBqps+XTxwXxFCEfM2jzdo9yj5Yfu9ZTPl08cF8RQg+ZtHm7R+CfLD93emfLp44L4ihCnPA2nJ5J6i2Opc/lcc/r9yZ8unjgviKEHzMp+ie0exPlcc/r9y4zxePHE18RQvEKkcCaUDkt7W+2/ao+Vqh+r61znu5+Opv4kggeBNKDyW9rfZfsQaVqSOTHPJsme7n46m/iSCKU8CaEnkN7G+4qqGl3wOVHNJt60z3c/HU38SQQ+ZND0G9jfcoOl3weVNjtPvXGfDx43mviCEKj5j0PQb2gKl+W6u4+pM+HjxvNfEEIPmPQ9BvaCny3V9E+r3pnw8eN5r4ghCn+Y1D0G9rVHy1V3O7fxTPh48bzXxBCD5j0PQb94J8tVdzu38Uz4ePG818QQg+Y9D0G/eCfLVXc7t/FfnPl49UM58RQvGHzHoeg37wUjTVSRIdnv8AxTPl49UM58RQvGHzGoeg3tCrBpqrA5R7R/cEz5ePVDOfEULxh8xqB+o3rIjrQ6aqweUe0f3FM+Xj1QznxFC8Yn6P8KfqM7R71SfLtb97t/wv1n88OqCcD6P8L6DO0e9Pl2t+92/imfzw6oJwPo/wvoM7R71VfLNTf3e9M/nh1QTgfR/hfQZ2j3p8s1N/d71Vc0B4cfzXaD6P8L6DO0e9Uvy7W/e7fxTmgPDj+a7QfMDCi+oy19mzrT5drfvdv4pzQHhx/NdocPmrowWNCnIseSNiqRwhqwL7B6Sc0B4cfzXaD5q6L/0Kf3VPziq+l/UqrPd4cczna8gqBwP0UQDxLLifIC4/OKt6TuxOaC8OqGa7UXiE/M7RX+kz7g9yfOKt6TvUnNBeHVDNdqLxCn+Z2iv9Fn3Anzgq+m7td7l1dvUZ4dUE34OU+tw9jlD5naKNuJZe3kBPnBV9Nx5pdftEdq6vmnPnqpnO35A+Yeiv9FnYPcqf5xVt7lS29VKg9VE3r7enRq5PB1w+Yeiv9FnYPcnzirb3LobesVQOqibx4O1j29B8OIqPmToof+BnYPeqj5yv/e9fuVNzY6kdU6r2y8YfMnRX+gzsHvT5yv8A3vX7lzzYqkdVM53/ABB8ydFf6DOwe9PnK/8Ae9fuTmxVI6qZzv8AiD5k6K/0Gdg/FPnK/wDe9fuX45sb+6p5vtn4xT/MnRX+gzsHvXL5x1dzu38FV2FYqgdVE3jwdvDtaT4cQ+ZOijbiGXt5I96fOOpud2/gu0sKtvjqom/Pz39PDpwD6PtFG/i7L32KPnI/n+8qqwqo+Oqib8y1l1z09g+UPo80UbeLsE2m1psh4S1ACRMi4vNxzbV2lhU18bzgm+Df6xYeenTwC2YzwVYTD4apUDWGATIg5yd5jq6xdVejuGNXEVWsdrNvFyRt3EW7zO8rb9mKlupNZDnlG23ROzMjZ2kzb/dfylptoiOLQWGoiLRqwGk9IcGsPSxmIpgthlSLEbhzerZkth0MY6pSpv8ASbOU7Te5m6jmvNW+FYF79Bs/ViX4g+jvcpjcvgfJPAouJJdflEku/Snbn61rLhuB43TsMzsG4HvVz0ypy1lxhpTgWEfdU1Nzyz6d3cu/RyEXWG1MU5w4OhwJDuMFwSD+kG3NWYtaMIIAHJ2Afuq9OZWx+p8/jy7/AIR1Me/UbyneS36x3DnXQnMxY/U8fx1dHLXf6TvvH3onMxY/U8fx1dDXf6TvvH3onMxY/U8fx1dDXf6TvvH3onMxY/U8fx1dDXf6TvvH3qIG4dgVRzMWP1PH8dXQ13+k77x96QNw7Av1zOWPxAfx1fDXf6TvvH3pA3DsC/OYDO4nL48veMNd/pO+8fekDcOwKrzHa9h+J/37DDe89WrRviNZ289pUqrzUb/F5fHSCTvPaUVTm4j2H4vx0dbz4dPDyidd/pO+8feiZER+l+8XiDXf6TvvH3ouMhp3S5d7/EGu/wBJ33j71EDcOwKryWndL98/GGu/0nfePvSBuHYEyWndL98/GGu/0nfePvUpktO6X75+MNd/pO+8feiZLTul++fjDXf6TvvH3omS07pfvn4w13+k77x96JktO6X75+MNd/pO+8feogbh2BMlp3S/fPxhrv8ASd94+9IG4dgTJad0v3z8Ya7/AEnfePvSBuHYEyWndL98/GGu/wBJ33j70gbh2BMlp3S/fPxiJO89pUpktO6X75+MJO89pRMlp3S/fPxiETJad0v3z8YImS07pfvn4wRMlp3S/fPxgiZLTul++fjBEyWndL98/GCJktO6X75+METJad0v3z8YImS07pfvn4wRMlp3S/fPxgipMhp3S5d7/ECJkNO6XLvf4gRMhp3S5d7/ABAiZDTuly73+IETIad0uXe/xAiZDTuly73+IETIad0uXe/xCZO89pUQNw7AuciI/S/eLxBJ3ntKQNw7AmREfpfvF4gk7z2lIG4dgXGQ07pcu9/iCTvPaUgbh2Bc5ER+l+8XiEKUyIj9L94vECLjIad0uXe/xAi5yIj9L94vECJkRH6X7xeIETIiP0v3i8QImREfpfvF4gRMiI/S/eLxAiZER+l+8XiEyd57SiZER+l+8XiCTvPaUTIiP0v3i8QhEyIj9L94vECJkRH6X7xeITJ3ntKiBuHYEyIj9L94vEEnee0pA3DsCZER+l+8XiCTvPaUgbh2BMiI/S/eLxBJ3ntKQNw7AmREfpfvF4gk7z2lIG4dgTIiP0v3i8QSd57SkDcOwJkRH6X7xeIQpTIiP0v3i8QImREfpfvF4hMnee0qIG4dgTIiP0v3i8QSd57SkDcOwJkRH6X7xeIJO89pUpkRH6X7xeIJO89pRMiI/S/eLxBJ3ntKiBuHYEyIj9L94vEEnee0pA3DsC4yGndLl3v8Q4wNw7ApTIad0uXe/wAQQNw7Aiq8lp3S/fPxiUXOQ0/pc+2fiBFSZER+l+8XiBFzm4kcXn2vKCKlzUb/ABeXx0gUQNw7AqTM1scS/v5AkDcOwLnMFocTH8eXfECQNw7AqPMBncTl8eXvGCQNw7AnM4aHEx/Hl3xgkDcOwJzOGhxMfx5d8YJA3DsCZgM7icvjy94wSBuHYFWZgtDiY/jy74gSBuHYEzGa3E5/Hl0TJ3ntKQNw7AqmRp+35i2lZeXR/Zf/AB3J4i+nDUEnee0qWgSLDMbBvWJXHYS6G5F9Hl/YqQuZP1lq8ZeQd1ZzjonEySfzZzJOx/uHYErAN0jQ1QG32CPqsOznJPSVvdTf2hNL9ByP8Ih4+009/wAq43lO/TH6x9FvOt24IDxShYfoxsHOo4b0PRmXv0GzvkAbq8D37Enr/wCUrWfDfzun0n+kLai7nIy6rRNKl5jWS48N/wDr/wAvIXJpG1MX+zg/iN/5ArM7zQfZ/tW7lHbtjfXGrKul4KE4qZwyOUEOSRZ7JWTkfgPsavoHSzyG/Zb3BU6y5zr1JuL3B3VeUckTnXqTcXuDuq8oInOvUm4vcHdV5QROdepNxe4O6rygic69Sbi9wd1XlBE516k3F7g7qvKCJzr1JuL3B3VeUETnXqTcXuDuq8oInOvUm4vcHdV5QROdepNxe4O6rygic69Sbi9wd1XlBE516k3F7g7qvKCJzr1JuL3B3VeUETnXqTcXuDuq8oInOvUm4vcHdV5QROdepNxe4O6rygic69Sbi9wd1XlBE516k3F7g7qvKCJzr1JuL3B3VeUETnXqTcXuDuq8oInOvUm4vcHdV5QROdepNxe4O6rygic69Sbi9wd1XlBE516k3F7g7qvKCJzr1JuL3B3VeUETnXqTcXuDuq8oKJG8doTnXqTcXuDuq8oJI3jtCc69Sbi9wd1XlBSnOvUm4vcHdV5QROdepNxe4O6rygic69Sbi9wd1XlBE516k3F7g7qvKCJzr1JuL3B3VeUETnXqTcXuDuq8oInOvUm4vcHdV5QROdepNxe4O6rygic69Sbi9wd1XlBE516k3F7g7qvKCEgWJg7jZOdepNxe4O6rygnPs3pzr1JuL3B3VeUETnXqTcXuDuq8oInOvUm4vcHdV5QUSN47QnOvUm4vcHdV5QSRvHaE516k3F7g7qvKClOdepNxe4O6rygic69Sbi9wd1XlBBfK/QnOvUm4vcHdV5QROdepNxe4O6ryhsnZv2dqHkmHWJyBsT1G6c69Sbi9wd1XlEAg2BBO4Ge5ci1wElrgDkSCAetOdepNxe4O6rygSBYkA7iU1XZ6ro3wfcnOvUm4vcHdV5RIvlfoXEEGwMncLpzr1JuL3B3VeUETnXqTcXuDuq8oInOvUm4vcHdV5QROdepNxe4O6rygic69Sbi9wd1XlBE516k3F7g7qvKCJzr1JuL3B3VeUETnXqTcXuDuq8oInOvUm4vcHdV5QROdepNxe4O6rygic69Sbi9wd1XlBE516k3F7g7qvKCJzr1JuL3B3VeUETnXqTcXuDuq8oInOvUm4vcHdV5QROdepNxe4O6rygic69Sbi9wd1XlBE516k3F7g7qvKCJzr1JuL3B3VeUETnXqTcXuDuq8oInOvUm4vcHdV5QROdepNxe4O6rygic69Sbi9wd1XlBE516k3F7g7qvKCJzr1JuL3B3VeUETnXqTcXuDuq8oInOvUm4vcHdV5QROdepNxe4O6rygic69Sbi9wd1XlBE516k3F7g7qvKCJzr1JuL3B3VeUETnXqTcXuDuq8oInOvUm4vcHdV5QRakzzAl6cvx0NeYWMvTSTIoyhIzu4cleozj3/8Aw94wUtzHSO9R4v8At/8ASE8vfUsaj8WGrTw9bUO6t+qcT/DP9L0r/rKh0/8Aqxb80r6HLM/QEh/CIePdNfrXG/xj/S1btwXmmH/hj2qN69Rb/wCmZf8A0Gzy/uDA/F3i4RuzwPfsSev/AJStZcN/O6fSf6Qtvbs3QSlPdrx8JDamL/ZwfxG/8gVmd5oPs/2qVWgPQMo38FbQ+QDHSzyG/Zb3BU6y8OSICICICICICICICICICICICICICICICICICICICICICICICICZoCjiD6Q7CgJxB9IdhQFOSAiAiAiAiAiAnGx9b1fggJxv73q/BBUCYE5xfpUcePTHq9y6hxrmbjbXXBufdWbyGsODcej8my8un6ByY3Xe1ues5rY36xA9q66uKbTpVKheIp03vOWTGl27mUMiVsvSgqrCWnzFB5WUlVefR0/dufH/ANKHo7BF3xl+K4MPo0W1A2A5gcB0gH12y39miqfhWo6T0t4tTeJbWNIgERyHlswOcZZdqmult7z/AN4YRjaRw1TVOw2PPa3MeZb9w2IbjNG0qojlNaZjoI6bjfdfQcBcA7wFwyQSmaAo4g+kOwoCcQfSHYUBTkgKHZHoPcgKcJVaHHIiSIIvOUX+MuhW66lzNVquh0bnKazeQ1hwbi4xzcQNenwco5NGs5rfScB2mF16QxLaLKlYwG0mPqRuLGl0W+yZPTuhQ8tXZbZ9xuNBb8xQ+UlZVwrqOn7tz4L1Ozj09SnnvDNmcGXjAOfq+UyRIG29t0k7/bGisJ4WsPwj4QU8Ox7RxVc0SGmBLHFl4jPVtt2yNu/V6G97T66wmoOdCerOhedn3jbCLvnx/wCZeAY/oTQLxjaodJALhckjbvneDa0ZraXD7h/S4P6Ewz26gOq0kgAHNpz1b2tne0zZdpdlvQse9C1lRwM9PVkJUb08aeuNhb++ydw+ejx8dJ6F4nWdcCSdom5yiM7W33AXbwH4eU+FmDLdVklsDkjI5XAB+LhbNC0Yf81IM7p54tvO34kq9QcDi3EZOJt0+y4PdGaCTmfj395Vw41pvDb38k7UBDUbBs3qaZ6kBU6AiAiAiAiAiAiAiAiAiAiAiAiAiAiAiAiAiAiAiAiAiAiAiAiAiAiAiAiAiAi0prj0W5r4OWf84HICluY6R3qHmo1v/pIfmj8q1je1d/x/QO6t+qcT/DP9L0r/AKyodP8A6sUgNJuhoyfe8n/wiHj3TX61xv8AGP8AS1btwXmmH/hj2qOC9fbnzbF7VpQ2fwcQcus+zyaxuzwPfsSev/lK1lw387p9J/pC29uvdA1J92u/wjamL/ZwfxG/8gVmd5oPs/2qV+gPQMo38FbQ+QDHSzyG/Zb3BU6y8OSICICICICICICICICICICICICICICICICICICICICICICIGeV02Ts37O3JdMuLiO3E2acDgWElBQZT2ctLU9kpJTseHs8vJ15aC7yQXfZE9y4VHspsL3vaxsE6z3Brbc5IHrVsNWqlL3xOTSez6gNN0KkpI5QnpJFXEJV89/e8BDnxNY5Uqh/2O9ytXy1hrxiKRAm4rU/erDXL1F29uLGb7grRT1LXtPpLOrsYYF5+ABSqkwKdQkZgMdI9S4/LuEkA4qgDIEeMUpvzSs3JSqjuNNlVhvqEovJc37BnUWdyqkqPnhq8RDiWPGbXDpaR3hXWnWpVoFOrTqOIB1ab2vPY0kwrEcdYqTs5Smkd0VIZDXVJT8SrTrQkpWx7XmQltOo7yWPd9lrj3ArjUxWGou1a2IoUnejUrU2O7HOB9SvFuONvupHlXA11hJXkGb9grSLPZVSVHV1uDX3hxcC0w4Fp3OBB7DC7GVKdRuvTeyoz0mOa9v3mkj1qzXHWmk7VUppvuiqDIQV6UP08irTqQkpW5e8XX0l1hyFKoRIpvI3hjiO0BdVTFYWk7Uq4nD03+hUrU2O+65wPqXfZ/seXaue8w8G/mb1T5cQsklv+2Hw/5GfHVdMapndBnsXPjqPF8bxtLiv9TjG8X9+dX1rq2rVSm74tpqXZ9QGm6MkyOUJ7Iq4hKmTsez57+Jnp5mjVAk0qgByJY6O2F1eO4NwIbi8M4wbCvSJy3B6xzb3r7s0ivZrzFcKeyqpu7J+4s6i3teH+fYxDia3+lU//AJu9ytx0lhNYtGLw8yQG+M0pzyjWlZut11HkUfOCYWEmVQSkcoZanp71JyOR+fX4RHF1P9N/3Xe5cjjaLRrOr0mt3mswDtJhYRQ71929xr2a6PXCns0vfe+RkiXNKjpPvdvxVXE1v9Kr/wDzd7l1N0jgnGG4rCuO5uJpE9gdKyhU3ocVG947x+QCClLK1IuGrFRnlWyeM5hccbVDsDjNUgg4XEQQ4EXpPAuLZ868dLT+/wA1v04j/L43PpDFsfhWBrZPEsFhJswCIA7QJn1rwTwRwNQcJaj6lcAePViNd4aCBWccnG87+vJeu58V+ovSu2lU+oFT2Q11TcPsJaXPVfX2z8uA1JpbC1a9Vzm0qmciKbo6jBG0f4Xu7CaVwmD0ThqZxmGBLWCHYikPR/fHwBBgGboY9RqfVNTcsU/eDeeSXr3a2F3Ku/wdvf17+gxaDTe0XY8AWktIy3yFkFLFYasGiliKFUkAwyrTeTInJriVew4jlGG8o7hc9gVQ8FjS5wLRBILgQIiZkxZYhfFfqH0xnMn1AqgyGuqYewlpc9Vi7fniXWI+0YeucqNU9FN5/wDVWappzC0iRUxNGnBjl16bP6iF2jArFSaqljNTFNqgNN5bk0TxIq5lXk5dfCZiDRqt8qlUb0scO8KaOmcPiDFDEU614/NVmVI+5Kuh1PFrsdNyw8HAktdL+95Ty1PZKST4etp8HDhhwDXEwASdwBJ7FdHVqVNofVqU6bYkue9rG9riB611bcqbTZ4ySooNd8NNelUn7+TiKuIKrk7l8/Br5mlVAk06gG8scB2kLr8Zwz2Oc3EUHNg8ptWmW5bw4j1roWPXCj9TVhUb9P6kNN5rzekcoLkkiz+VcneerXr5Bxcx7fKY5v2mkd4VvwGMoVC4U69Go6TZlVj7tJBENcb80WjKy7OrnQlql8HTv+QBNE/naZF4qMy5nArq045xwOMFwXYXEibjyqTx2jM9POvITTL2+U499bP+cJDd78WGaKgt/wDELgGbM6B69p3QvntwHw2I0fwvcajy4Px9YglxgzWcbGdkxzdK9COyB3emPWnMNYWKwMikrybsisp6HnpP+pLiR+t/no7A1zo7SjvHq4ax5ALpIaTvJyHN7olexPCBwdZpvQGDFarTpF1NkCpUawnyfSIMbbc3PF0XCqEMCh7Jecw36rtOqC84Z9HzpWmXPFkhuk3Pa6gYaccMCLr6xa9K6Xe8uYWuBJIhzXTYnmse47shdPBzwbp8HMHxtOvRqANB5FVj9hObXED/AAc8tqkquFFlxSlW+j1Yp6qL03PZPkUWSdSFlZSx7XmYtWHo1awLuLqQT6D4y3wDu37otfPMPjcLj8S9j8Th2OYSYdWpgy0Xs51pAGdh61Sv+8LQ+mU5k+oFUGQ11QvwJaXPVY8ex1usOXE1ZgUqvRxbp7lPyjhBI8bw8NJbIrUYsYz11eTNf7HqOj5wMd3t55JfTqLPZV3uHk89Q4upvZd7HsG9zS3vAXOljKNcxRrU6p3U3039uq4q7BxaC7yQXfZv3KtBkTs283SVhd8XjKD05nCT3xVhktdUL8CnVz1W7e+fnyjnxVX/AEqn3He5dD8XhaZh+Jw7DufWptO7IuBzV0MeqlL6myeUKb1AabylZT2dmyuZV8PZ7WIh1Kozy6b2faY5veAuTcRQeYZXouJyDajHE9QcVkAcAQcjPRdd8ECSCBnMWjfKAoQEQEQEQEQEQEQEQEQEQEQEQEQEQEQEQEQEQEQEQEQEQEQEQEQEQEWlNcei3NfByz/nA5AUtzHSO9QzVO6JD999K14B3ViPknE3/wDGe5477JX/AFjQ6f8A1YpHaOdCxhe9lM/gEPH2mgflXG2P6Y7P3WrduC80w/8ADHtUZt7fo5L36DaHzfIbr8D37Enr/wCUrWXDfzun0n+kLb66t0B0v3c8fl4htTF/s4P4jf8AkCszvNB9n+1S0UB6BlG/graHyAY6WeQ37Le4KnWXhyRARARARARARARARARARARARARARARARARARARARARARBByPQVDsj0HuQTg74Z5Nzys+YGOxdwA+QNaOVrm+39Idua0p2Qqw9Huf1k3Qf4Cj4d0GoXTgwA/GEOAMnaJ+sRtWufCi99PgJUfTc5jwyoQ5ji11nWgiD/leadgTz4kV4k+m8wrJa895HM/cTY++zhR3H+IODl88RuVopYfBPJp07MzLG7s5ifJ22tK8TcEdMaWx9SrhONxD3OqVGN/OVCfLcN8c3TlksyViud14oQ1Ut4VIZ6QlNdWn8nnOoq4hKuTljD8ouDDzPQMe0NXo1sbVbqUyCXQC1pF2kbvx7jftMcG9P4FwxtR+Laz9IJq1QNUQ7IOuPVs6NtNi2rS4GrWCaovMKE3NM2oUisKEii6yTng3ep0tG/2N4WzhHhNVziGNAkxDQBfdv3ZwNi2Z4FOFb8VwrNGpWfUDRqFr6jnCRTIycSNnqM2KwPsiVhL298CrfpciL1n9f7wavGXjMXHgtTp6pD2MPJPlMByHOCbf43LGfD3jcQ7heOJxNekNYQ2nVexoAYDk0tGzKBmRzqZrY0f6IjC/Tjw+XhhfC1rW6QYGtDRr5AADMbAvQvgefUqcAsC6q99R/Klz3F7v0o+s4k+tQo3/LCX57qsnpaU9nI+HXyA2uto1dvDe0bC0HSpu0a0mmwk0nXLWk+TvIXmrw3YrFUuHmDZTxNemwh8tZWqMafzW1rXAepbpT1hL/8AkhUvRj6uI/fq7jvdvRj2tJ4PSoxpIAsEcYQRAgybWO4ZmFtivXrU/AVha3G1TUPGTV4x/GH/AOReXzrWEbe1RV05sKgKq9NU/pfMK2X6m+s+eRWv6lZxI+OlA89ZHpGxdImjSwFN3F05aGnyGgmI26t72J69i0JwTdjsdpvC0hisU4PNRoHH1SCXNI9M7cvXCyNXC69WG7nkHmoN9JlZV2F6hzqLPGqpP6A6/WL6MafA6Tw2OAYKdKY1Z1GHK0gxYc57clx4d6C4QcEtI0sYauMFPWFQA1q2qQdU5FxEmcr3tttVU554ivqa17s7PWFZ0NdJnlhwIbLnZ40pJTvfG4S05rePhE4zCUb1DTYAOUeQ24aC4ZNk7YHPzrJdEaR0twz0fTwlB+I1tXUdqvqAybSSHDv6VZtaaEVIoC6pVn1QR5RLVJuRyhIlJTuVklRR8dWPJv74YPSmHxrHUm06Rjk2Y2OTIABANrercQsQ0/oTSfAPSlGriMRigC8Oh1esRLoJsXkHrvnNipr7jFYnBU26LVprulQm1RUpkhvBvyM7O6FZRZ+QPW7p39XJ2RhPCLRmtiKb2iBxrDDRE8puUbPZu2esOAemvnFwdqkPkswVYmST5NF95N7wc8z0yvPtI28xYWMrMS8yUrNSn4aRH2O/p3+AZ/AwlCk5wypszgzyRmTMjm2RkvFlKhV0hwgr0qbnD/5tdo1HFpJ45wtB2erpW+Fhsfl7B4s+aqwoN+UVFVWkc4MirTqLmhKOO/2eseAttThNh6DuLdTpZ6vKZTN3GNrefZc9S3TjfBXpbSGim4inXxcMpGoNWtWuWtDrQ+9xs5+lav0cq2+KA1CS6gM9Qm0tUSZ7BcRfxS4kfH1xoDi7ejt6NR8dIaMbisC97GNGs0uENEjW5W7nvbLYVhHAThTpXgzwhpYXF1MQdSsacVar3+Q4tuHEyCIgbdpU5l+C+XMsCibD5k6gUq6K3IecKEtH99m6z+P/AH1Hp5e8MK4N6EfTx9QubrAOJh1x0iZHZnFl6Y8IvhZr4Lg/SqNaGOfQIaWwDLmgNkgTMm0jPnCi1uy3LaoXr86HgnuCUQUFJnsnzz0c+XVVWcSyX+fJ39Ob47TtbQ41PF6drNBpMNhA2tj8TE3vpXgHwH094W8NXraT0hWwrS57mjj3U4aXOLbte2JEd45WWOaqUyqxc7rNKo+cGS3m3sjuBqvRsacoo/W0dnh8EYStX4RMe4YdghriSKbAI1SZsOmfeqHSmF014FNKMo4HHPxjHV6bKgfW43kOeATy3vPkk7R0SbyRXvaty9ftj9pfVGYl5SVVJuozPT1yS4ueHrlbbi0eMteouDFdHaL1dJgOaCBUOYB+sRcG27PMDfZby8IOlMJp7wdDHYTEEVvF2PeaT3NIe4NLpLSD5ROVuq6iDarjfEijr1NmfMTeS6mzyOnriKiyPqu4s3fa6gH5+EhsjT2Do0sFRIp0xAaZDGzAgwYHUc5C8u6D4W6bw+g6uCw1TE1td5ozxlR7hrVCyZJnbsKmQ2NK71WiklTn46KkU3cLNQVenOT5GdWtGUVjL+re8XbGuOEuLo16WrTawENAhoaMmgXIEmO3nsV6H8D3A3SOjqzcTiald3GFtUirUqPA1+WfKdz5ZWsFK7VzoS1S+Dp3/IAwvRtMiuwmTNRls7awyG7u7Vv3heQzRmJa3PxSuOmKTgLDoF+nmXkJpl7fKce+tn/OEhu/SgA0ZAAH5kZfwme2V87tBk/LeizNzpOvMbf/AJMX3jZfYpXdmBsN0PaiOGrNV4fL/h4dZfTj/A1jHY2trMafLzaDsfvBXof8o2rVpYDg82lVqUg7DNkU3uYDNNlzqkXXfbFRYS/M2vQFhj6RR9HB6gOXgMz7ZC1cJmM+UGANaJecmjeeZT4GqNccFcW+pXrPPFOIc+rUeROsfrEn182y0MqGqqDUWEtwN+3yCvN6eyghrclIn6nLHYw89HWzPR1OkMAx3F05DSZ1GzEk5xN+npWh9M6WxdLhXiqNPE4huvWdTaG1qgHKlosH8/NmLZBbaKtzS9BPU3VK8OBnzaolzcjniuTq0uf6Q1FH0+r+b3W3uyLRS01h345tPi6Nn6sGmyN27K3qErJ8TwX4RYbQtbFCpjDrM4wHjqvkuuL6xg33AZ3VsXQq1OCh1bGY4EdQm5VBcK4jt98Iv4pcSO4/PhFbwu0bTxuBY+ixgOoTyGNBuBuHx39Xgd4dY/Qmnjg8a6s9rq7KTuNe94hzi0+WXWgyDHRKmF2Sa9Q4KOttBpfTdZyW8qhSOUFxakscrtxn/wBnd4nS9NXgxGB8GtEOo1NZw1uUZLhrRBOc2ynnXonwxeEGrwOwLaHB1wqV8RSa7YSHVGNcY1pi7t+w2ACi/uy3GKkXokdefCe4ElmNeUnsn5zueRXVVWcSxqxItfX4d8Zvi8XRwxpg0qcgzBa24BGsQIuL3OwkCbhaL4D+D3wkeFWtW0jicfWwlOH1WB1drAIa5zRGu3dGSxK8WrVe5pXKZT5dYyC/GnPI6hILSL96XEjnq/5W4expxFRpPB0uElEcUxjBqDyWAEW2jVkE7iAZ9ano3wg8C9MU2Y7HOq06dY0+VWY4FrHaoyeZGUTc9F16gKEVVl600fYdUJeX3NnYh5Qn5Li5Y/KL/PEaj0vo1+gKxBMgujfmekxskSLZACy9bcHOEdfS+i6AxQBqBgktAzEAkkA2kT74WXhQg6wB3ie26yUZCMoEIJUoCICICICICICICICICICICICICICICICICICICICICICICICICLSmuPRbmvg5Z/zgcgg5HoKluY6R3qGaqvRIfnvpWfAY4u/VWJ6HdzkrfrGj0t/pUkNF+hQwPeym/wAIeTNMfrPG/wAY9zVu3BeaYf8Ahj2qMC9x0cl79CM/5AIbm8D37Enr/wCUrWXDfzun0n+kLcm6h0Bkv3c8RtTF/s4P4jf+QKzO80H2f7VLNQHoGUb+CtofIBjpZ5Dfst7gqdZeHJEBEBEBEBEBEBEBEBEBEBEBEBEBEBEBEBEBEBEBEBEBEEOyPQe5Q7I9B7kE4O2GeDY8rPnBjtXcCPkDVnla5tt/SHZmtM9kK/oi1k9wpHzgF24LNd47cES4CSCBJd8Fa48KUfMSo056r5btjXnLPLmUBlyX+lfQb37n8gjavCGqcNo1xbIJpyRtyB/GOleQPBZjcE7hVRwzqUh2IiI2615gEfGwkqenZEbCXt7n9Wt0S/sTM9Q/v9tHjvlhylrGt+CGNqVNJP1pANSLiAbnIkTt5jM3Nl698NA0ZongtQq08M0OqYeJ1YPKaABJAyJ7Nm1QaXCv6XdEf06r/IDnGyuFOGaKbXQAS1pyiZAzjf0zOyAvKvgOwxbwyqVNeGuqPc24A5TXER1GIymQDJK7LZE/6XdUOszvkAWvg8C2YBJIMdERO0bObcVy8Or3M4XB2qSwkCYtOo1ucRfLNTI7Glby9vdKZu55j2IuPBPnt/A8v8mv/IYVwtBOkKZAJGvmLjMDPpsvSvgcq028AcCH1GMdyiWuc1rhNRpuCQQoW7+tvL297qsm55jdXq4jp2o9GKA2vB39Q2JoEg6OYAZPFm23ILzV4buVw9wLm8pnKBcLt/R5EiR61uhPf+aGlf05/wDN4hjD6UaQaWj6+y0SR1T0XJJW2NKtLfARg2NBLofyQOUJrzOrmIz+IWp2xz/0wKYe4Hh8gOcX7T1VzNHgZcg7xfZPx1Gy1b4JqDK2n8C6Nc0367gBrG3KyuRkQd/SpNdlssJfmDMOY/8AWoj8utvuXX9OoYnwQc59QknW5TsjObubr5t1lv3w2VdG6S0RxhoNY+lRAOszVMtaBtaDmJ27dkrUHYkeju/PgrP5fMZNwj0i/C0nNg3Y7ORJjv3bLTstrP8AJ6xGDqaUqUKlHXY18NsXCZcMyCJ+LZHI2zA2Evlig8x+FbheHW/Jrsau9oGN8CDVrVHa+sQXkixO029UnZsGRKr/AMpPAUsRjKZp0xTgtyGqMmnOABz+3JdDsZnQrve+9VH+QXILxwpr+L1aILTepTbcR9dtt+34lXTwMU3YPQeKaCXTgsSAAdY/oag2E+7MRmol25ufLCDuj2LlxH6/tg89e/yDJtJkPwtOIANKnfpYD39pzXn3gzhm0+E9V9QR/wDPxBvaAa7iZ7Yzle0iR3N6DK7n8+DX/l3hqPSlCp4w1wcbVGmOhwgRfb7IXv8A0PiMGdBMYRSdNAixafKZEnbF8zlvXj9vDW6Pb14rJMN/cmQeaM8Nw7ix1Zf148Ojg4dO8Nu6Krcdo/VqDVik0coRIDf3oztnnM7F4H8JeKwmjOHmHpYRgc12JMmkNYS5zTctnP4mFlC81YLFgj3X5dY3X/RlZ+4SPDj5y9rh172gUOjCyljajoEDWcbbhNjsGW/nm6yvww4qkOBmj6jW6r3spAC8lxcwCQbm5vI2kHKD0NJKc3qHi25pQogn1YmmvKLmT57MtcXUpJyxhp/Kv6d8dekMVg9KucC1o1XEXAGUCdgIkSIHerfwBwPhGbo/V0HXfSDqYLQ00wYcLACc4PNM5mVdC5dQvoOqcyi6KT1jdE1JyOT92ueeJV4NHtrwxx0Y4EOGD4S4Lg+DSDWEvaWzI+tLRGcZxe+3cqfSXg48Jem8a+tpp9WqC4mXhpAAvM33bwMplbLP+mVQKV7HBKtepDfVmuvTd4w1CRRVrHK2R+XAWzCYtr9INqNAOu/WAEkw4lxym+VitlaQ4K6T0B4J8XUxVRzn06bpaSS6zzbVkmxFhFui6xzsYiUnzt65BmFCXk5rJLHeChI/1csaNfX0cgv/AAr0iWaPbZwGocwRcgc2W6+2Tz4j+ThhNHcJxiaGNpNc+lVJAe28te4gwb/Vk9RE5r0uDSrMbUxLyHFx5RFwRlMRIyzO7bIEr3RhcHhtHMDaTGjUaGgADYIGXNvjb1Y+q50JapfB07/kAXbCUw2pSMj9I3aB9YbPUALDux/hBOKwWNsXRhcRG61F/SNnwF5CaZe3ynHvrZ/zhIbc0oD8mZH9E3Zt4pntXzz0GCdOaMaASRpOvIAkiMVeQFK9svXt3on71Hh8vGLBwMjx2tP7/c9egvykeTgODzjk3Ctk7LU2Zrvdio6Hl5b9Ho/yA5Ra+E4I0gwwbPOw7za/+VPgXxbqvBTFgNcRxTh5LotrC5+L9N4Zpf2ZKe7S8JDM8CCdG2BjinRY5XPddaJ0jhG1eGj3awtjaZIkTAqAkR8HLmK9kCrYS9vTFUl5iX9KzdOcdf8AUHe0HvfQNNvqvoaWaQ4n86dpyLjkJPWvetSlozFcEXThrtwdMEmmYJFIA31QBlc+vf46EL78IP6cRPl8bdfi3VdGU9ZrieL9Embb45ubOLXnwi92DwvC8sotAnG0wA2xGtUAvGec25rrfDZNMo89FNbo9i8zim24cev54Y9jeFm0DUbUe5ureT/V3nqO1Zd4dq2K0dpLR9KlrVHPpUC0kS0F1KmYJMjaObqssI0rple4dTPyxRZHrHNM3dyxuHMt1rqUk5Y1OL8q988NfawFw0vg2vkyBkbkWvAvbPIbTN7hctB6J8N2L0LQq8CcWKDHtbanUwwOrIkRrA2HNJ2wu+XLpN8hxzmWHBR+rC8qfe/dq1PZVVi14/lX5lgKPA6UboppBc0yCCdYbDuk2O7be0hWrSPg28O+N0pQqaarVHMLml96BJyL8jJnOM+xTwXCmA+aZXaWuz3+35trr0ouPBQyLO6FZOR8v6fp0DB+FGMZpiprNc0QZN27+aNo6swF7A4A6LrcGtFUaem2l1biwDInlERciREmbwOcbdzBj4EADcAOyyzMkOJcMjcdBuEEogIgIgIgIgIgIgIgIgIgIgIgIgIgIgIgIgIgIgIgIgIgIgIgIgItKa49Fua+Dln/ADgcgh2R6D3KW5jpHeoZqndEh+++la8A4u/VWJ6HdzkrfrGj0t/pjvUjNF+hQwPeym/wh5L0wR8p424/THbzNW7cF5ph/wCGPaoyL3HRyXv0Iz/kAhufwPfsSev/AJStZcN/O6fSf6QtybqHQGS/dzxG1MX+zg/iN/5ArM7zQfZ/tUs1AegZRv4K2h8gGOlnkN+y3uCp1l4ckQEQEQEQEQEQEQEQEQEQEQEQEQEQEQEQEQEQEQEQEQEQEzQQ46hECIIMdU7Nk+/Oyp6x4vEsabNOTfq3g5C0fG1aZ7IL/Q/rH7hSPnAQyrQuJZTLCQAQ5smADmM9pvO47dqw7wh4R+L0ZUawEg0agDNhJYdlhzzafWoDLkv9K+g3v3P5BGXcJNJU8RRa1pBAaARsyEyN2/mGzJeSfBrwe0rgeFjMU/DO1BinOB1RkKhvltgdgz2z1bIR/Q9rJ7gR/nA2xg+jsRTo4hjhqt/OtuAB9beOoboBXqXw21MbpfgvQw1GgXPbh4IDZjkNMm2dvZmVBlcK/l73VEeRcWPkBy+Lk17w2Dwo0kytRpw4fo2AX3NE9U7Oi2QXlnwV6G0xgdKTUo1WE1HcqDPlEXJAvfs5oK202VChDhSqhJdeEdPm5pruFCR2+6p2Skfa6stzqi3z88eW3cHNIU6ZhzhyiG33kwebnBz6lsfwxcFNJ6SwNKvTw7i+m0VJDeVyQHRrZ7DInI7gtBaSXmq4UOTVRv0wqBNoKW4Z7KE8i7hQVXBYxP1fbnLw6Be9N6E0bUirxjS4gPMkWJ5UTJ3kzaI27NX8GeEHCelTGGbRxDGMHFta3Wa3kWnVAEHPmzO5WHUZq1AaqwmKFUE9WS16oSJzQPXP99lFGcenL7i0b2jsYDjoj5PwdN7XVWg6jok5EAjfHUI2DO6tfCelwk0jiaVU4Wq93G05c5kmNds8oicsyTJiBuUqU9/5oaV/Tn/zeIYtTxtOlpCSRHGGB5VpsL9u6V6Fo4bSdTgVVwZouP8A8Vo1C2Wg6t4bcC8bJJlam7HB/L3wKc7n6ReBaf0Bh2eXe08uIrOGGNZXwDQyxNMiRG0Zde0nLrlar8CmhtL6K4W4nEV6Lw3jyWh4JAEuNpkbesb1JrssvQAYfwqpHyA5BinASt4lUcahkFxN8sybTYZg+vPPcnhrpaR0xo5zcPRcIZB1GRcC8hoE8/Te9lqHsSXRzqN8Fn/86Mk4WY2nihDI54zsLXAnZnfbmbDCfyf8BpLROkKjqtEjlG7mXMTvEzsN81lDZgfZlCPcVSPC2hy4FYxmCOs/VHSBO0TtOe8bucq+eHbDaS0wSaVFzjkC1vRt1c7domFa+xl2/wDolvfTOHpXNVG4eIHLo3tWngLUOzhfjaeMrUnNLdUVGTAGQc3ZbbMCN+y6pfA1Q0pojAY0VqL58UxIh4JE8S+Mxmbdd42qKBjtRwP9dQWez0/LzocPqfIosl+MT0dnE+Xk6wzCpU0diMPTYarR+apgyf3BM3iejrhaB0Zo3hLjtJYuq3CVWgYzElsMIJHHvIiAD19JzAWy0vfSvUNVkzVJ+aQrJaWkyOb+E6h+uxOR+ICcO9v6OsMer6CwFWo2qKjZY8PF/RIO8g5Qcp3LYvz14ScF6DsK6hXJew04OsfLGpEEHa6wmbdvRXZbsr4vJvxLR0dPm5Vmyk76+Hp+KU5H7ftp3tHgHfp7hBRdSbSplrdRgZyYE6rQ2+qB3SsX4KcF9NaX4T4fGY7C1HMqVuN1qrdcEPdrZvFs+buAmZv63O1CrdN2asUnR/XnSZDzfQ2x1RM/iDHRr397eLSMb0dppoeWki5Ikmc7E+u4mdomIXpXwpeCbC6e4NYZusG1KVIPawAjlMDXAQCBmBBiNihHpXXeuF11eXpdjuBWZs1N+2psOdD9SVHR+UTecxcvfPXoGSVMHo7EAQ9oJh0zBa5wMnOxhxBg7TmJnzdobhFwv4C1C04OtxVMljCWGC1lgfJIuBJ5itglXZLb2CrJ5Pl3Q00Ga6dRWP6q9jh3u2LXX4JYKuH1ONkgOeDJPk3tcbe/IrPKHhn4U6VqUaIwLgHVGUyRTaDDngEnkbjfOVvhfudSg+LgdL3gsS83LKjhXKPqC5u2RyX6sZAc3DyY9rhGP6FxDcLpFjXGdSpqiTsaY2+v1rZfDtuksbwXqYcUn/ncO1xYANXWc0EiAI8o5RtutI9i2/l71Err6HLw0H/y0fCXAM04ZaRp1NHsA1RyBaBbLdP+dmS1N4BND6V0HwgxFarQcynUqOtqloIJfeIAyvbbey9KQ0/ABsAOqPjtXszWLrmb3iTYlY/q10JaofBy8fkFyjtouLatIyYFRhzjJwKo8c3WwWMAAJOFxAFryaLwF5B6Ze3ynPpj8qmfyfj/AL30nq0DdeL0tRxGiw0astotabA31QI77zn1rwZwO0BpahwtdiHUHcWMdWcNZstA41xBEyBNoiIUr+y9e3eifvUeHy8Yw3g3j20tIVL21jIBGV/j4gbX8PGD0npvQOEo0qT3OpsbENuPIBBgTkLgQIXe7FR/L09vLe4UffLeQHL9J6uERwjxtOrpCmRF3jdl0gf5Vb4HsNpLRnBDF4erQc15oOF28qeVzEgRFzzHNQy2GhSlZfUW7vPt8m91iGaYPS1HD6M1XapLqThJjMtItbPsPVAOiXcHtM1eGtXFcTVLTi2OFjECpPRt3X9a9kE/0O5v3jl83iGkzWDdLh7ovWLoJ/e3bc+jqXvX5QxbeCNTCcTyzhGt8gTPFxuBJJ5u1eN9D+/CD6YL7+I/J+P/ACdcj6w3Y7StBmiA2GTxJ3TGrs3ZWPvXhFnBvS44ZnFOoPdTdjqbrtMBpqgzJG7ohegjZEbpDgrS22vVCm6flR+MhDyeuNiS++ziZ/8AZ7+1LLx+ga54N6Wa3EPBgTUfH3zzbRnzb16U8LHAU6ewGHq4VgqVG4WiZDZc1zaTJvnmOkKG+kl4yvF2VSVE9jumba+6571cZbnQ8qpOWNP5POb6MOQ8CGcY2pTxbAA+zhBIcRAdY3BDgRJu0yLkXNtB8HuEXCzweVX0qdHEupsJABLnNIE/VIIgndms8KuyW3r1yx3Mnuhppc1/ZhjoWVlHf7WPnwWDG8H8Gxhdx8kiTyydkk57+tZno7w08MNKaUo0sTgqoY57RLm2AJG9t88zz2zB9HTAXJh1MlmuCYl5uVmnC1EdQnpGdw4gx7G939AwPG6PwlKoQ2qZBP1jzneNu9eqtHaVxGk9GUamIpQ4saTLADJIPo+xXYKeIsLgWCuYyHQEBSgIgIgIgIgIgIgIgIgIgIgIgIgIgIgIgIgIgIgIgIgIgIgIgIgItKa49Fua+Dln/OByAihmqd0SH776VrwDurAfJOJt/wCM9zz33VO79Y0PtNUjNF+hQwPeym/wh4+00T8q425/THb+61b80f5lh/4Y7yo0b2/RrXv0G0PkIhuvwPfsSev/AJStWcN/O6fSf6Qtvrq3QHS/dzx+XiG1MX+zg/iN/wCQKzO80H2f7VLRQHoGUb+CtofIBjpZ5Dfst7gqdZeHJEBEBEBEBEBEBEBEBEBEBEBEBEBEBEBEBEBEBEBEBEBEDJS3MdI70DGWAgTtjLIAn2TG/mVJpfk4unAizTaTsH4cyoZ6RT56Tmk9Ql5RUlZv2dJTsjlXHfLrY7/njGDxT6eZIAuJ5r9ZBG7LNRpbCsxeEYHiQRGUyDGwXuBkurkWcz0qc3entdppc1KfhskhoSVyY8B9vQKx+kamIBBnLad1stmc+pNE6B0RgmHEto0w8AOkNgznYRPVkem47SekU9Vk5pPUE+UVJWb0T0lOyOVUnzPk098itxxD6TgRIhzchMXjdt2nLuVbVqYHS5OGrUgWCW8pthmBmJK6yRZrPSpwlBPa7eS5qU0btkkNCSlbz8mnWYvGO0lVrU2ySYaAM9gGz17OlY8dCaK0NjmPpYdgOsHclgO0bQOnZt23Xe28jLz0nNJ6hLyk1KzeG7pKdkT9UNXn9PBb8NpKrQdImR07BAzEG/vWQ6br6Lx+AbTfhmPOqGnkybwLiJy51i5KofRdDWM4Eek9PUte46kmOhZW16N7X1+2QrDprSGL5LqjhzE7B0xs3Rns2WHRvBLg9hyHjDUpfJPJG25yGY7edX6qtxrrlucwsN9vKk1j7NWkNCVe9vY7+kQPlDWaeOMSJEiYnIX2jv2q6YjQHBsgg4WkYyOoJBiR9X45lzkNvZNyNkdIyDxJkNCyTqw9r3W38MOQUuksa+ji6ZaTBLZIkiQL3G+J7iVUYHDaMOGdh+KaGOkQWwNsbMr82V9ipJFqtdKnDUEdrt5LmunZJDQknz+nDRyXHSWNdiMJTbMzG2dvcQTJM7BsVJhNC6J0TXfiaVBjSZOs1tzYnYNu3dOUALtFVKR1yx3OsJ6SqSvSS1I5Vw3z3/KKYVXYFoLDmBlmCR0AX6o3TJXeylo7TOFqCvRafLBD29I2jm7ok3VKlNxvoVtNTCO328lzU3xKhoSUfX07291y4RHjz8SCHE+3rznPZlmcrW3QGA0XojF1DToNb5RkNgnPmiMo6tiKqG31zcuWEdJXilMTkctIaEq8uHD3vAJ8eqYOAw9l7boB23nosZzq9IYbRumSeOotIBNyJzN9knf71xIttvpNjNy6OgJKXKzfs6SkkNDSjUMNXn2g8eqYwkON9k83WcrR078uGDwejNEseylQbqvaWGG2ggiMjsOUQqaRZzPSpzd6e12mlzUp+GySGhJXJjwH29Ak1dI0xPHHbEOvA6SeyY5lTYXR/BzRjnOGDpk1HFxhkmXHWJu2xJM5RvhWu46O0neSllh4UvZDoVenVpqoSqrdbr6Mf8zHI6W0gwQajjGydY5Z57OzuXXj+B3B3hCRVdhaQ1Tr3aAeSQbSBIMQr8SkNHbibKo7fR0lBSpTRIySLI5KSdHX7xYfSYonYqtiZ1nGSTMnIZnM+u3QLlXvRuidB0aZfQw9Om6iNVpDADLRG0DcM94iYVcAL6YkEyRYzntG342LqxGGr6VqimHRRpuDnAxGqzlOAmJBAiLmMwclZLqpzT98e3BjtN0e+hqoSqXePDkw0d8TTxukaRkVXCDlIsNmRk25u1cNJaL4JacZxT8DRDmANceLiXNABPki5I6LjeurQ6O0fatsUw16X09QZrp1FaqEk+He89Zi7UtOY9rS01De2YyIjqsf8K04PgfwT0e4Obg6ZOu106u4yNm8c/Qr8nkpPVZPJ6wnpKpK6fSS1I5V5NHh06NHXIWurialDGse2bmSZm7rnK26Y3dKv+k6WjMTqYfiWlha1oGqbAC2z/Fl1aU1WshWxTCQ128lzR/hqKhoSV9O/vF2tIr9PaSqV8JTbrG4aDBki97DMRbm55KpKWiNFaFaK1Ci0VHeiBMnbIE7c7q4ha2+S3oHcqqZuLA3A3Svn/r7Dc9vq8+Ht9nkAnVBO4T2XXF4DmuBuC1wI3gggq15dkMewtt0S7PacrNSnC1ULw8OvRoFz0dpWpVwVRjnkGIE8xI33yEb9isejOD+iMNrYkYdgcHOcSWibkyRbpNurZPaKrcb65uXLDfSV7cZekctIaErYY6N4uvr5N8UOjMa+ljXOuJcc5G/b8dAyNbWwWjNNONCtRaWNBA1m2sDFyDGWy+/YuUpDb6HYzUujo6Slys37OyLIoSUZYa9eOPnpMNJ411XGsdcwRlJFucfGyCcowOF0dozD1MNToNDDrNIDZESdwyBJnm27uqzBZHUQ0+5VCFfpHStSjg6TGOJJgGJycRNhfabHm2KjwPBzRD8U/FHDsDidedUDKTtFj2X5srsGOY17m4uk+8mDOYkgE5W337ldq+kcK14wYpE0yA2NQwBleBkOb3K0zY7HsLbdGY7T7LVQt7vefWGRY/StVuCpMaSZABAMmHW2dkexUeI4N6ILfG20afGOMyGSQ45EQLkG5NtmQiLsFvpMdg4ew8ow43i5E2z3n2c3bhWtogNxQ4xkAQRPJmw7CNnSLqyXVTKm74tvR3hT9kOia6dWmqhKvX0l3uDDSLlT09VaNUlxJETz5Dnjt2bAqDSGhODWkHh9bBMMuaXE087i5tls222KkblJKTs623Q16b09QZrp1FaqElb/nhv49cdFTSOOxDSOMdyjGcWORz6Zg7osqTEaA4JUMZSfhsDTa5uqJFM5gDM6t53zuNs1kEWqpo7GV3a5qmJmNYZD2ZjKTZZpiWYSlgaTcM0NHJhosQJAyix6tw2Qg7wCAAcwIPSFRtyHQO5BKlARARARARARARARARARARARARARARARARARARARARARARARARARaU1x6Lc18HLP+cDkBFDNU7okP330rXgHdW/VOJ/hn+l6p3frHD/AGm9ykqox0KWB72Ez+AQ8e6a/WuN/jH+lq35o/zLD/wx3lRqXr7D/TMvfoNn/IGOOrz4N4bs8D37Enr/AOUrVnDfzun0n+kLbS6v0DEv3c7vl8bUxf7OD+I3/kCszvNB9n+1SvUB6BlG/graHyAY6WeQ37Le4KnWXhyRARARARARARARARARARARARARARARARARARARARARARARAQgG5EneboIgDIAdSG9jcbjdBMDcknKbbkEEA5gHpQAC4EHeLIJQgG5EneboIgDIAdSiBuHYECAMgApQcpO89pRBBAOYnpv3oLZW6LIBvnfpQ3zv0oBvnfpuoADfJAHQI7kAWyt0JA3DsQDfO/TdAAMgB0CEAWyt0WQgHMA9IlBMnee0qNVpza09Q9yCM81yFsrdFu5AgbkFsrdFkBSCRkSOgwgLiABkAOgAICEA5gHpQRA3BIG4IJN879N+9Sb536b96AiAiCAALAADcBCiBuCCRYyLHeLHtQAAyAAd4sfUgQDciTvSBuHYEA3zv03yyzUi2Vui3cgggG5AJGRIBXHVb6LewIJN7G4GQN1yNxBuNxyQFBAOYB6UBIG4dgQBbK3Qo1WnNrT1D3IJk7z2lctkbN2zsQQiAiAiAiAiAiAiAiAiAiAiAiAiAiAiAiAiAiAiAiAiAiAiAiAiAiAi0prj0W5r4OWf84HICKGap3RIfvvpWvAO6t+qcT/DP9L1Tu/WOH+03uUlVGOhSwPewmfwCHj3TX61xv8AGP8AS1b80f5lh/4Y7yo3r1Fh/pmXv0Gz++gdjWXW7BkeO7PA9+xJ6/8AlK1Zw387p9J/pC2puu9A2W92vHwmNqYv9nB/Eb/yBWZ3mg+z/apX6A9AyjfwVtD5AMdLPIb9lvcFTrLw5IgIgIgIgIgIgIgIgIgIgIgIgIgIgIgIgIgIgIgIgIgIgIgIgIgIgIgIgIgIgIgIgIgIgIgIgIgIgIgIgIgIgIgIgIgIgIgIgIgIgIgIgIgIgIgIgIgIgIgIgIgIgIgIgIgIgIgIgIgIgIgIgIgIgIgIgIgIgIgIgIgIgIgItKa49Fua+Dln/OByAihmqd0SH776VrwDurfqnE/wz3PVO79Y4f7TVJVRjoUsD3sJn8Ah4901+tcb/GP9LVvzR/mWH/hjvKjovQ9GFe/QbO+bo3Z4Hv2JPX/ylas4b+d0+k/0hbU3ZuglKe7Xj4SG1MX+zg/iN/5ArM7zQfZ/tUqtAegZRv4K2h8gGOlnkN+y3uCp1l4ckQEQEQEQEQEQEQEQEQEQEQEQEQEQEQEQEQEQEQEQEQEQEQEQEQEQEQEQEQEQEQEQEQEQEQEQEQEQEQEQEQEQEQEQEQEQEQEQEQEQEQEQEQEQEQEQEQEQEQEQEQEQEQEQEQEQEQEQEQEQEQEQEQEQEQEQEQEQEQEQEQEQEQEWlNcei3NfByz/AJwOQQ7I9B7lLcx0jvUM1TuiQ/ffSteAddcn5HxNz+jft53DusqV/wCscP8Abp94UlVGOhSwPewmfwCHkDTX61xv8Y/0tW/dH+ZYf+GO8qPK9D0YF79As75AG9PA9+xJ6/8AlK1Zw387p9J/pC2fu29BSV93vAbUxf7OD+I3/kCszvNB9n+1Sq0B6BlG/graHyAY6WeQ37Le4KnWXhyRARARARARARARARARARARARARARARARARARARARARARARARARARARARARARARARARARARARARARARARARARARARARARARARARARARARARARARARARARARARARARARARARARARARARARARARARARARARARARARARARARARARaU1x6Lc18HLP8AnA5BDsj0HuUtzHSO9QzVO6JD999K14B1V/1Pif4b+9ypan6xw/26feFJFRjoUsD3sJn8Ah5B01+tcb/GP9LVv3R/mWH/AIY7ytBbyfRaXv0Ezvm+N6eB79iT1/8AKVqzhv53T6T/AEhbQXc+gxK+7Xj9A2pi/wBnB/Eb/wAgVmd5oPs/2qUmgPQMo38FbQ+QDHSzyG/Zb3BU6y8OSICICICICICICICICICICICICICICICICICICICICICICICICICICICICICICICICICICICICICICICICICICICICICICICICICICICICICICICICICICICICICICICICICICICICICICICICICICICICICICICICICICICLSmuPRbmvg5Z/zgcgh2R6D3KW5jpHeoZqndEh+++la8A6q/6nxP8ADf3uVLU/WOH+3T7wpIqMdClge9hM/gEPIOmv1rjf4x/pat+6P8yw/wDDHeVoLeT6LS9+gmd83xvTwP24EmbZ52/8pWrOG/ndPpPcFs9dz6D0r7veP0DamKvwcEX/ADgyv/5ArM7zQfZ/tUplAOgbRr4Kqa/N8x0s8hv2W9wVOsujkiAiAiAiAiAiAiAiAiAiAiAiAiAiAiAiAiAiAiAiAiAiAiAiAiAiAiAiAiAiAiAiAiAiAiAiAiAiAiAiAiAiAiAiAiAiAiAiAiAiAiAiAiAiAiAiAiAiAiAiAiAiAiAiAiAiAiAiAiAiAiAiAiAiAiAiAiAiAiApgjMEdSAoQEQEQEWlNcei3NfByz/nA5BDsj0HuUtzHSO9QzVO6JD999K14B1V/wBT4n+G/vcqWp+scP8Abp94UkVGOhSwPewmfwCHkHTX61xv8Y/0tW/dH+ZYf+GO8rQ68p0W1/8AQbP+QBvLwWfsQ7nz++9as4b+d0+k9wWyt3roPSnu94DazL8Gr35TM/4isrvNWdHsClKoB0B6NfBZTX5vmOlnkN+y3uC6Fl8ckQEQEQEQEQEQEQEQEQEQEQEQEQEQEQEQEQEQEQEQEQEQEQEQEQEQEQEQEQEQEQEQEQEQEQEQEQEQEQEQEQEQEQEQEQEQEQEQEQEQEQEQEQEQEQEQEQEQEQEQEQEQEQEQEQEQEQEQEQEQEQEQEQEQEQEQEQEQEmL7r9iAuPj5fDYnYLe2PgwgLkPzgvtkmTuKAiAiAi1br9YS+WGvMHL4TWQ1nh4/14afPEQ7I9B7lLcx0jvUGlTuiQ/ffSteAdVf9T4n+G/vcqWp+scP9un3hSVUY6FLA97CZ/AIeQdNfrXG/wAY/wBLVv3R/mWH/hjvK0GvG9Fle9ws/wCQCG8vBZ+xDvj671qzhv53T6T/AEhbK3eug9Ke73gNrU/2a/3M/wCVWV3mrOj2BSlUA6A9Gvgspr83zHSzyG/Zb3BdCy+OSICICICICICICICICICICICICICICICICICICICICICICICICICICICICICICICICICICICICICICICICICICICICICICICICICICICICICICICICICICICICICICICICICICICICICICICICICICICICIAvlfov3KCQMyB02Vkv9/selbVVHxUh4N5hs1vYZcc7oXMlJKcWvr6uHvYDg6rTZ5dRjPtPa3vIXdTo1KrmtZTe/WIHJY51ieYFYbovfLur3jFOaR6H3gKZVGXpT8mEVc9de/8Ak85vXfvmX+WmBWonKrTPQ9p9qyWvwYdh6euKb4LQ6dR0ZSc9gmDtutmhzBDvJId0X7li2LHiryx3IvA1hG4RBAyJjm6UHIgjMEdK4gyAd4B7UCCcgT1KC5ozc0dJAQIO49hXIEO8kz0X7lq3X774tj3Cs/LxCHAwbHI7OZSLETa4zttUGlVeiQ/PfSs+Ax1VgfknEWPkP73HuuqSr5/Q+0xSVUY6FLA97CZ/AIeQNNfrXG/xj/S1b+0f5lh/4Y7ytBrxvRUXvcLP+bxDeXgs/Yh3x9d61Zw387p9J/pC2Vu9dB6U93vAbWp/s1/uZ/yqyu81Z0ewKUqgHQHo18FlNfm+Y6WeQ37Le4LoWXxyRARARARARARARARARARARARat32b0KPctusVkvPrDPVn4l0caud88y0WeySquL1fJte2E++Z6C07wIsyUrfEvU2mNOakS6fkuVqEx2c78izs/lXJ2caBnJkDDyYdbeIsgAiAiAi0fv8Al9JHuFUNS64OCn6tUaVVqxU3o/kVFXDaqtlioy/m3nBr8BYgi3csLf0exlZjTvdvTwHycnbBF9ARARARaQXvb7CRdKfd0JgK9PlZ5TV7qvvMARJ2SXMlZmK+QScecDi6ptJw6Dx0nwFoIt3wRARARARaK1bvso9JL7F1W5PMU/Vl5fvStWpDwQ6gyS4aUkszmc9UTe05z+eOjEEW9QIgIgIgItFZG/Ajz+yHr2x78z9Wy8kXc0e8hzTsuIWScjuNfzbzfNvdjg8pFvUCICICICLQKhF/RArhfdvkXKE+m6sgLtzpDpwoLdQZ1cQ1VJeZ1FwMybrf1NnQZb+OrEixLEi39BEBEBFUAij6uQX9G/fZdN7xsI9OFViTV0W8WsUAXJxaXENVN5LDciihy83j0E2tEJn9yZkRHhjtsSIi39BEBEBFQz0xuGTmlDpSRyh2uXHz1chEWkux1X5UDZCLu0zeHQKfq1L0vmpVFpjmwsriG6VbCni7C3iXzxItOERYnqM9JGZYGZFvQCICICLFdcKmS1FqM1arAoI82vytJ6cvCoE8iyU/krKObiAbkyB2Ov2wRYwuTXoEe+jdXolenR2erMNLrG1s8JFlrU9lZWbvq+5W2Rk4i4c3tG8eGAItowRARARapX4L06PcnusVjvTrDPVX2l0cRM4J5loy5klWcOK+bbxNw68NJ9/fwBFmOj1RpesVH6X1Yl0ebQZWptOWfUCRRZ2eJVydnGgZyZA/8Q97eBFkoEQEQEWh2yK37EDY+aBJld1+nCrU9MVao07pkbYRltDaqrhUJcib8S9oIzxMoTItGGOG2OEsThIt7bC3O3sd0asO1v8ADq/zBF9ARARARaBX0b+bfuavy5ywFim6q+5q91X1HoAiTqMtoaVmasuSIoTX3DgRk5TLHHGIy0EZY44EZFIKCKnBEBEBFoFWi/ogUWv03QbjChTdWXl69e1qjr6HUGSW0NKSWYdOUA3Lg429qcu/rMj0aMcDMiLf0EQEQEQEQQ7I9B7lIMEHcZQTgazaLHl5BMmNaSDbdc7e3aqetTdXrUwyYDoME3y2DrA+AvGj9kHXmnA97xTXuzo6hN5h0cQ0dwLkl+KXFUhxdnWy2tm73SjT/DzFPdVLqdRzTJ8l7h2Bp2HLP2r0J4O9GtbQaX0mOhmbmB2yxBcN53jZMKAtDXFhuLCW4G+sKyAvJM9lBDWkWeyUrJyxr9brh+kYHhdMVKdVs1aoyzqOOzZytl9+w9GyX4enXpOYKTBJIHIaQLn923qHPZewvYjNlzt7xVqlXZ7zCvJylbSkS5nNQJ3BJKspEWGQHDqIqokRaS1P4tI3FwZ4TUwxoe/WcSJ1iXEknbNySTt3webQ/DbgJUxTnVaVPUZSGsQwBjWNZfkizWsY0SQLADIHOcOsdaqT0AYSpUitFQG9TphpPs5bc8+W/jggN4/ymdO9oKLTvYYjLdKacoUmBwc2CATFjeJiwg7ZMd04NovQ2IxLuK1HGCWbIBbIkncSALAnKREzEvb7P/sf9gvZH3RW2aS93ZPzn5leKTo/5qzv4RjNPhpRpPDdZt3ARYzeLm98ucLKang1xOLbxmq4Wm2sBlMCIy3+xSqUIvGUPvNMnmgUHqO3qjNf73z86iz3qs3VniBxN723tnvaOsMno6bo1S0y24mZ2xOU/gsU0loevoCZa4gTMg5gjftJA5r9th1+++LY9wrPy8QubcSyo2WkXB7uYb+3rVBhavyhZ7dXVm9xMDqvl0zAytBpVXokPz30rPgMRW/VOJP/AON3c9UdURpGiNzgOwFSVUY6FLA97CZ/AIePdNfrXG/xj/S1b80f5lh/4Y7ytBrxvRZXvcLP+QCG6vBZ+xLm/W9H636R+zNas4b+d0+k9wWyt3roPSnu94Da1P8AZzV+trM5P1v0m7NWV3mrOj2BSlUD6A9G/gsZ/wA3x0s8lv2R3BdCy+OSICICICICICICICICICLH9VKjNejtN35Vh8zE3Ks2mTVWHg6p2Rkcqqycjtz2xHm8W9568ARQe/bN+xD/AJ8Knfs41W+qgIo/dlV2fDY0L0Ox5XqaAUdqvUNfqjUynBoLVRFih76aqWoq8K+24jPOJy47XAoTiPEtBFtjLaliCLaygX2RzsULFoTR5iOmtNSZZwM+ltOW4vSchQWqKvAa02kBuNtx7S0ha5wWkJlAe1js4ooI/uShOLbQbYiyt9s07EP+eip37OdVvqoCJ9s07EP+eip37OdVvqoCJ9s07EP+eip37OdVvqoCKKfZiNnI2Oi95dObFL6HVNqA4nmlXlbu79npBco8+WmkEz6eve0cLiiJxOcyxjg223ghLGKO0hhghKKKIiMilZkfsmjYh7CTlpbm0VN0SOkyu6VXMjPrk1DxLEteJ6ARcfbNOxD/AJ6Knfs51W+qgIn2zTsQ/wCeip37OdVvqoCJ9s07EP8Anoqd+znVb6qAiia2SzZxNjqvGVh2NV3Unqg91JCu33w0msNV5ufo++Uc05nQIGbkS83s5zLOYyOHH0P+eZkW1hM9qCKXD7Zv2Ib891Tf2dKrfVUEVJ9s07EP+eip37OdVvqoCJ9s07EP+eip37OdVvqoCJ9s07EP+eip37OdVvqoCKJ28ls4ux31G2VXY9r0TXqa9ZujdBKY3im7VVenaQPpKWExYqRAhZuwQtsjN3OiGPabaKPAzhOzhIsNvgZFLF9s07EP+eip37OdVvqoCJ9s07EP+eip37OdVvqoCJ9s07EP+eip37OdVvqoCJ9s07EP+eip37OdVvqoCKJxL2bzY8pfZpnhfMmKovQ6CrFxVq0LkHLDSF8RLJVJsn44HPGhRNqEzeUMBw2sG0tDIobQ4Y4YIojsoyhIpY/tmnYh/wA9FTv2c6rfVQET7Zp2If8APRU79nOq31UBE+2adiH/AD0VO/Zzqt9VARPtmnYh/wA9FTv2c6rfVQEUOV0PZsdj5pJssOyfXpXzUh7ytG7x7XoTIUqW5KkD5VlRxcztBKBxm4m9jnY2NMGBx4kURYYmcJQgimN+2adiH/PRU79nOq31UBE+2adiH/PRU79nOq31UBE+2adiH/PRU79nOq31UBFV/bN+xDfnuqb+zpVb6qgihx2KHZsNj3uvVB2Stw1fqS9UFLvHX3XjWOluR6QvZ1EpU3cUURZecBNkyNtHhtfuNNoZ7aIi2uAIpg/tmnYh/wA9FTv2c6rfVQET7Zp2If8APRU79nOq31UBE+2adiH/AD0VO/Zzqt9VARUyr9kwbERMJqpLS9aKmbqnJFXTy/6OlVsC39eauBcp46NOOGAIomdhK2b3Y8bl9ymZoreCqe9ms/jr3XOohSKJR98O1INFdC3Bato84msZw/dQRlGcB4RQGZwRkUcMRERS3/bNOxD/AJ6Knfs51W+qgIn2zTsQ/wCeip37OdVvqoCJ9s07EP8Anoqd+znVb6qAiwVer+yLdioqxdhvE0zZlYalTL0qNRKozLacmo0Fqmi2agtOZhuVsts47a1jgsrKAjPGK0tY4LOAsY44oYSMyItctio2e/Y0Lr2x43V7v9X6sVBQan0vpxkB1oqNRJ8OpKTlfOFyOLCFwtoy25kcRaICii2uMeG0hjMiKQL7Zp2If89FTv2c6rfVQET7Zp2If89FTv2c6rfVQET7Zp2If89FTv2c6rfVQEUemyy7PRsa96fY8bz1AKMVYqEv1PqexUdBaqIsURfDWSlBWhcDbcZ4uBynEcERbWKIijIj2plaYHDFCcRFtBdo+yM9ipppdzoDTt5VhqVLOph0SpEy3ZJp1BqprVmnrTZYbbbLjOztrKOOytYTw+4tLOOOzjIyOCOKEyMyLNf2zTsQ/wCeip37OdVvqoCJ9s07EP8Anoqd+znVb6qAifbNOxD/AJ6Knfs51W+qgIohdm22bfY775tzVBo9d+qe93S/ZSvtIagz0it0ffDSSTZ7bXIonDg4nToM9GiAvuozws4MY4oQRS92H2TRsQ9hYythzaKmewcMOdzqv19HrU7OO92QRcfbNOxD/noqd+znVb6qAifbNOxD/noqd+znVb6qAifbNOxD/noqd+znVb6qAih82UnZsNj4vMVf2Ml4UfqS9V5Au43z2dWKqk6s0hfDWNOZzdiL1eb5OWL1ynjrs9McOiM4SIsSIpjvtm/Yhvz3VN/Z0qt9VQRUn2zTsQ/56Knfs51W+qgIn2zTsQ/56Knfs51W+qgIn2zTsQ/56Knfs51W+qgIodL0mzX7HzVHZcdjYvYM2pj4nKJXbWPXVDquvTtH30kqqUq1HQ3JYt42+3jMnY5YYrW2sYdvEf3OBFqiiMiKYv7Zp2If89FTv2c6rfVQEW+NyHZTrnGyHuB+t26w+HW8lSmCKkr7qNy07fDChTkdxRbVu7WJyGcMUOJHhERnCZaYYjLSRFIiCICIINwehQbAncCvtYF6P6XLUXDwdvs72IteLquoU3RncDd29++Dmbqs0LTFfFMDonXgAwDnuN/dYm68H98SeR64XhK8OlYl8qSrhqo8FCRnfxsnYr+bbd3uxqLwDTnCSq6tVOsTckZk7+j2L1hwLwDKOFaSzVllpBGwERlGU7ejOY3HlSRwNzdUwn4ryX07JFgrJ3ny8O/oGB4jDmm6WySTln0Gdh6zPMsgdT4gmQYk5j2id89qxhJKqghqUqsI6hNpamlT2UJFakp7JSsnLO+v9jr9g8DF20Ziq1GLkapHTvnm2js3hHYeliWPa+nrF7XNynMR178th51s9etvhXiL3bpbCvX90zqrNMhrpKChtiKTibCUnHGhRRmv5vxxRGTnehxZ4P8AeBGUMEBFZwFDAUMJXrS2m6ldgaHg8kA6pEWEb9sd83ucZ0ZwNoYOq6oacA1Hv5Uk8pxfm/ZJgNBAAhrQAAFqqMbpmrVOuHOz1pki4j1LJqj6GFbxYYMtWwEwegG3Ta63AuaVivA3eqtJdYKDuGba81Kep7q3b7U3mjl+IHE3sPXN9OHWGT6I01XNRrHOc0AxLiRIBjaR09AvMFYvpTgbQ09Re4saLE3aBvPNtHT13PtHbl5pj3r6bsSqDPwSprcKwnvhs7u9VmY8C/EHDw9jSNxaHxTa1Np1wSQJuDBI3A+vn3Lzrwt0P81sQ5lMGNbVENJtN5gRtt3hRg1V6JD899Kz4DGS1gRojEyP/Ge5/vHasNedbSFB1zJaee4/FSVUY6FLA97CZ/AIePdNfrXG/wAY/wBLVv3R/meH/hjvK0GvG9FRe9ws/wCbxDdXgs81c36uqeTsy3ZLVfDjzun9r3LZW710HpT3e8BtNvnLm/Vnyfq5nZl6lZneas6PYFKVQDoD0a+CymvzfMQuhZfBEBEBEBEBEBEBEBEBEBF87ewl7exmpeYl5SalZz8Cnd/tly8GsEXQZnM/qYancqhAiic2dButhP2Ja/FNSrfb8pOQ0hgOGdkEREhiKInC2TLaxQfdQniRGUUH3RHgcOnWRbxXUGq17e67dzmM12nNf6D6P/iNC0YMFtaT8P8AkCLYHM5n9TDU7lUIETM5n9TDU7lUIETM5n9TDU7lUIEUEP2Q03UCQuHs2ZlkBvyc3z4d1gt3SKGhJOiJ+mUWO/gZGZHjoMjMsNIIp1ZFnM/cUp612n7B6lULHvlqLe06+UEVTmcz+phqdyqECJmcz+phqdyqECJmcz+phqdyqECKBrZk28gJ94LYail2+gSpT2yDI0KhuFFRISUSzGcMeMRQ6I4cYYfuY8CKPaRkZxwwEZFPLmcz+phqdyqECJmcz+phqdyqECJmcz+phqdyqECJmcz+phqdyqECKBu+U3kGw2dTYkU2XbyDKyc5RS91FPyZIqJ6GonDAglDt4cDgOMyji9DiiMo4SK0KAjKOMyIp5Mzmf1MNTuVQgRMzmf1MNTuVQgRMzmf1MNTuVQgRMzmf1MNTuVQgRQHIaIgn9kiPtNNvoG4i2L9oqMMhkRD2pRRVccW3Mt7bGUMG2iLTgUGOOEOBFPjmcz+phqdyqECJmcz+phqdyqECJmcz+phqdyqECJmcz+phqdyqECLzz7H6iIFvs7uzWJ0wgIE1JybKutHISRoaEcCcZt+zKIoSwwKIiKHbHiZxFtCMiKEsSL0MZnM/qYancqhAiZnM/qYancqhAiZnM/qYancqhAi5sGcz/Rvau09/W1ULzxPt48B6QReeXYJEJBnas7Mwcy32/NFK7JI8U9P3chIaqSdDkJzl9yZlhgcW21GZY4lrxwIvQzmcz+phqdyqECJmcz+phqdyqECLnM5n9R7T7lkMEXVrjOZ+QV71rtL7xrGPrVQsdZa9Ggu2CKBf7GvbyBP7GpMzKk328qTfPS3jId2z6GiKx7WF9wwwYHEZngUJERF/NIsChwhIiBFP3mcz+phqdyqECJmcz+phqdyqECLnM5n9R7T7lkMEWql+5qtewuT3vpiXa7TlClLstYPTuQkLqBcunz1Ai1E2C1vNhQ2JS43NTTfQJucio/FFFPT6IhnEcRv9zGeJxGcRxYmZnFFpM8TPSCKWXM5n9TDU7lUIETM5n9TDU7lUIETM5n9TDU7lUIEUQuzxNxsSGxJX25iVb7flJzmdI21npBEQkoyPP5s4GWGnHHDDDTj2zIt5bkrVa9vc6ulzOa7Tmv+jLQf8RoR4esBtae0CLZXM5n9TDU7lUIETM5n9TDU7lUIETM5n9TDU7lUIEXnw+yUW6gJOx5NeYTm+30qb57W7iW7pFDQ0k9qa6ZRatOBw4446MP533OIIvQNIs5n7ilPWu0/YPUqhY98tRb2nXygiqczmf1MNTuVQgRMzmf1MNTuVQgRMzmf1MNTuVQgReeXZxkNAkbwmwplLN9vypTeySs/KG4UNDSiUYcWyeEWGGJbYiPT/tYHrLEEXobzOZ/o3tXaerqVQuHX19/hx0awRcZnM/qYancqhAiZnM/qYancqhAiZnM/qYancqhAi881+BEQLDZ+9hmTpdAQJWUnKW3pjn5LIiEUCiZN90FDtiIsDiwOLanjiRHHgR7Y8CL0M5nM/qYancqhAi7WRQ0dJtt0I6OkpW6+kkNCSuHWWHjxwxx4SKuBEBEBMlhe8ZU2Xo7QerVUJiY3LmnTlYUJHQRerBe13tOnAtfgwFn01XbRou1oBjad4mfbnA2bYu+gNH1MbpjD16YcWNe2dXKxGyM8ztA7V4U/TH4T7L88e/544DRmm8S2tVcGuvrESLbYvlJv22XsXDkDROGotGq9rWzAg21TNr83WbqqSkpQXFKVR0dPm1RUVp7J8hJSX32UvBwcB9fDQLVUY2iJdBtN+rnI7OqVc3vOL1GNaBAaJAvIAGcTl3qWi71cKp+zrZLqDWBrt55VGlDyhIyU7IkqpLMx+czp0ae3oIWmrpZtDWbLYuMswbZTs/HNZPorRB1NZzQ6BJkbs9++DE3WJdkRuaN+o9tzwCOnq2XklDR0+o8kiz2OUUdtn63V/rMvTy8goKFfWMFziNYuEmRLtsZXGqD0AbIFNpbCOqNIYII3CJvaYvkTbPcooEqlbHSrbdEuj7qmi46nsq9fHg0a+uMlwtRsNNswMrZ3EC8X9V1jTcKaLnF7Z5zGwH226ucq/dNge/r7Jn59gyFVjqjSQGwDbKB2wcyqihVDmuZMTbYMzuBvuW2lzuv3MIq0lzCwoblYb2yQ33xu38XaPW6v8hMrs/SMq4M6RFDVDnOMubm47T02/wA74OrOGXBU6RNR+oHQ17rtmLEzJBN7DOJtewW/dVeiQ/PfSs+Axu9+JbidC1tUieKyEZkEZzzm+/dYDzPXwjsLpVjXCA2oWgX2HV27o7ehSVUY6FLA97CZ/AIeQdNMcNK44RMVzn0N3/BW+tH1AMFhha1Ju0DetBrxvRUXvcLP+bxDdPgs81c76uqeVsy35LUHDjzun9r3LZW710HpT3e8BtNvnLnfVnyvq5nbl61Zneas6PYFKVQDoD0a+CymvzfMQuhZfBEBEBEBEBEBEBEBEBEBEBEBF064ht91o8033QjpLoQVb2ciueRQlVJUsd7N5zYFv73aBF2kjIyyVJysunp8olpcp6nyMlJSOSknw6ODSCL6AiAiAi6dxsdHeMnk94M9JdCXu7KBSTnapKqTlnD+03Y8oIu4BEBEBEBF06qzkB1TiXMLDPSXRNN6eyghzq2hoSrm6scft3H2s6dJAi7gEQEQEVQCK355qteeXkt0KDXbs26W8WT0JzzqGhKqs3fe64dObO/54Ai7gEQEQEVQCK1SarXJezwzXbudE3I5vm9MhoJOzI/EGcO92uzjoBFcQIgIgIgIrdSmc10tYXnQjs9vJa+4fv455JqoaUrOLgzicP5TasARXECICICICK3UNnNdrWyqTXa7ea804Z7KC5kVDQkrOJY4/cXVN1tHhBFcQIgIgIvnh6N6X4NPDjvefk0EXVtxnNdjpuR2s126zUsp7KGRWwhITVSe55s8mrWW8CLuARARARUM8lJ6rJzScoJ8oqpc3I5PnpKdkcqpKij+eoEVKhoaO1UeVb7Xb6S10FJ9goqKh5KSU7Tpzdb30mCLuARARARdOutxvutHmkd0N9JdCDNl6eRXOh5VSVL/AJec/Y4eyCLtJGRl0qTlU9PT5RLlZSRyfIyUlIZLSU5I0+fBpBF9ARARARW642c13jJ5HeDXbryS93ZQyK50NCdSRlj/AJm4QRXQVhMWHsiX3L/nvY8HZ75GCL4giAiAit1VZzXdU6lzC+z286ZpvT2UEOdWmqhKys3VjQeX291M69/vaQRXRMWExYeyJeblS9w+PsaMOtwAi+IIgIgIrdt2e11ReS3QoNdvKjob33jc86hIKq7G6e/m64SwzZBFcQIgIgIgIgmCcgSuLnNg8oZHaNy85f2QbevzApNTm6+z1jcryqauc0B8binjysnU3bntdxIi/LR07+P5NFiWjTgHDXFcVReGPGRyIN4nKens3lbp8Eui24zDur12QWyW641SYc4ZOjmi9+xeUKRq3UCw/HGVNBezZElX6dXB1iMaLdiH1ar3Xhpc7I7J5uzrW89H/nMUcObMbIzMZHblBtGYXpjuMXbFimTDS6gVYT5PmyOyRyhuLcOmnaPxB76fzg4i1VdLuqlzCSMxEG8Ej8fddZ/orRLQ4OcBYg3By2WOwc9sspJW/wALVUY6qdbW5zuy2RzSR15yslqVW4Vuo0XNrAHm9f43X4t7D0ex3PMempUuuXe62/5BOGqOD9Xcbnfnvy6ryZVOzDNryXDPfYXneRGXrHXApf8ALudSKHW01Vij6PKKlG5v21SW4cqq1Klj6raC94IybDVSGzI3ZiOe3Nlee2Vi2l8KKROq0wZyE7+u5yE88ZqIOeqpUCeP2wbl1+wpHJRefh0b4rBV428yBbOR29Sw4vOHLomATHec56+iOZWbPTygq45QUJxU92z3+Xf0n18RybjX4d7Gt1rOG8RJFhIv1xzLjUxbK1KoHDWJY5s55gxz592exT/XXqtqFYqQILhWJg5p0JODedU7/XDcPh3vWtydvSY9AcG8YMTomo0vDn8T5M8ryTbVmbRtHRMleVeFuF8W0qHBpbNUkSCLa1oytPcN9p6aMdClge9hM/gEPPunKUaWxwIAIrmxFxyW52+As+0dVHiOGmJ4sTcDadi0GvFdFNf9wo3yCY2v4LP2Jc763pfW/SP25rWXDfzun0nuC2Vu9dB6U93vAbWp/s5rfW1mcr636TfmrK7zVnR7ApSrvXQHol8FlOPm+Y6WeS37I7guhZfHJEBEBEBEBEBEBEBEBEBEBFUAigj2brZTF7Y/qfUypDRKfZaXemvKrJIdPXNUqcQ0qn9Gmdt4LNw1bcMTmgjgsttHHDDFa2pbSAosShtbQ4LG1Io69ijp1cmvD3u2dWFd2X2vN/C/DSYlSoKyx1tbcLCoooq0bcJursdP2G62nt3S2GjZuArUzY5WVhGZxWlhYWUBlARF66ARARaZ7IVeFl7qNyG9BeAmJjcs1T2jrwUEMtOl4uNAJtt3AvfS4W7weEEXjd2K+5Dclv6U4pKlujZgb00N8NeQLd3VCu+MurSw14005lfjhtW8gRuqxO2dJ2DUOA3vatGYtrWwixOzOyig20ZF74ENKl0NHS0dP9ipMgjyElvYZucPnwdkirgRARWm+Hyz6ZM90VAqA4Elms1kIaw4HU51qeyUkt1HbntiXy08vBw9cEXgg2SWvl5XZEHLdlvHI9QauURoDeBvZod2O4jRltLzgYCzUSkBOM7Kot5N9HZWsbptc93PbtprMI7WCGKEpeKGzihKGMpgi9/qUlS6GjJaPL+xUmRR0+RPHqc5PPkwBFXAiqARaq3z6IpF4G7ZU2lbmrhUC7o2FJGhUnTVqmjngbLpZrRbRk5XFt120his27DmsX3cEcMcEUOMMUJkZkCLxs3eKVJdI9luutMfYcr515m99Sc5+zUb5jqc75Xn/RVmNGFwRFE3XFUBsthjM5zWMbTOKKK0OytIytrKxgs4oIIrYjIveQCICKoBFpFflue8+9SdKpDMV/rxd0QidSO4XStXf3STXdTzSP8AZYJr56ImqR4GcMRHBEZbWIoocSBF5f6FUbfuxo7PXdzuXXUrztdK6Ugq5TjL94emlVnPA542GkWqM6LSJcdMEJws+LaEhIDys5iGHGys3DBKx7aCKX9AIvaqCICKoBFjeraVUhVpjUdHpO4EhmVQVmOsJ9OXOtSJqqS3Xhm/63V9xN7yH4yLyLbHVTG8tYfZAlYWDXe+VWC97OXXKCxr1SHe5pxdarWhqNUJutY4URvsCJ1m0Wy1WgbmiLaQmUO2s4jOHDabUi9lIIgIgIvHTfAvo30dlR2SV0bF/seNbFi7tQWikazY3iLwLJgtY1dTjbkUJVG2jiavrsJsWTqjsmew2Y0IoSfT6trO2tIfQTO0gIsfXC6zXydjT2aeT2LOu96Gol7Oi9bkeKea7lqEpLasqJ6o4WA43K3nG3bNzuh6xNYziQl9mP0oY7b0Q4LeKKGxhsi9EIvauCICICKHfZm2TefWrszvqFRi+K4Lp9JKN0tq/UKuMDAQ4lSqtVybaDjTyn6A4oI4LSmcERFtD9DjhjLbaIof5xEWJfsb1qPlJ2LKk73qS6HU8XlWJ9VKf+WHivLiwpkjk4DbbdKGJyxWhRQ+t3REUURRFge2MgRTxAiAiAijR2QDY20jZB5mm6U770F5iiVOmLJu+Jbp7d/esLYRqirThMjbi85LO0KKzjhZeGBw2kMUERYlFCcJ4Aigv2GeTqfdn2YK/Fsf9OLwNS7xF0OlLKtXHEpP9ajdBNKo0Wa8JES8cXoLXc9nGvOdnkVhZWcL9zdihPEoYIYCL1/AiAiAi89WzH3QbkFR3eg13v0bI/Xm6YzZRj5ApzTFlVhQWC1HEsNojNxOBuU+zUfBuV0kThbxnmVow0mWjQRWF9jU2l7W1u3V4jruu1fclAYqwf8ARDV63QLcD6cVPyiihjcMvA4oonXC0rSAm1axQ2RQWEFrHawS1lZS0NjARF6UgRARARedDZXL4L3rQ8n7sbt1GoSqw5lpUvVqu7IPeMZkNp/0bKENxv5zWjAbjkIobMqoVjhOBn2peiw2uNtY+hwRQnHHZEXd/YzLbeEtsZ6ZU97ul8OlUrbWKo7wkp56upbdKtmi3F7mbN/A3JFGRwlE3jKCIj+7hIosCx2pEXoUBEBEBF5B/sh68fTdwX0rgtymp96Z13V6PFJO+r94qprAWVtOdTdSHEeblPD2rbxgiM83nDDtY7O0hihiixIoihMEUl2xI3BrrdGJxTvV3Y79tdr7LPfjHjp6hrL/AKm2L5azciNxYuUkE7OzgjbjrKJvHCXou2isyLaQnDCW1IinKBEBFi2utZ2Td2o3U+u1TZ6JNYtKmSrv50TcMO2ijSW6eBQwwliZxGZkUJERmZmWGk9JF4WCv7092S972z92R/ZXXRcUoQ+FqJKoBczuszjhNXSmhnF633JeCf7aar0Z7YiigI7MjfdnGcEMZ2kEFPqfQ2cdkRe4e7NSun9ELvlHKUUwcCs8qdU+pykIDIcyytk6VVxI5njl9wuAsCcpPTeItHBgQIs5AiApGYnKRKCLOg55xntsVOMN9Ww5LSMhfVj2/FlZNTajM+klPXlU+oCzKILNp61Vh4upancPU5Hbm/y9vVyDrqaTpYWnUDiJ4t8T9mBnPsz2Llo7QtbGVaRaHH86zfEawy2QRMjq5l/OVve3k3Re9vFVHrw591ypOxcPNVF6jGe3Pa8gaNHtXPHSPPmm9KGu+qAXEa79s7Tv7D0Abl6r0Jos4VlFrWimBTpyGjVE6rZnViTOfNslbQbGJd6l6m1UXqwOhvza8zaI5HUJFFkpDKucVSD9rqBve0v24aOBomZEMQZj20i+Q2SHDnuCNvcM8pW1NGaN4xrHtALm3JEA2INz1Cd94U8C5eTR2dbFMVApPXlhoP4c9J2lmdTTTj1lnE4aZm9s2d8uwMdfTlzjcS4nK1zNubNZk3EN8kQHARybG1juv27ZWeG46m+8UFLdDPcCS6Gu4JHKCGtIk8SqkqKP2z0fQOPFnebcxtHXaFMh4kib7eaOnmXQv+ozHpW25p0VAdEo10HduT92Tv4xWOp9u9U295NAU8+sXGd+fqsqmpVa0C9wMttxfp9XZdYlkb1FD1yx3NlB7yqXN+p+7XPQ+q6U0y/5hczU173B2NVzpkgDoJibWB9ytdZ7HAiAZBF75dUGclDLsj9yWn9HUFLvAUX9S2a4XUjp7qZcliqtNu5x4k3V9u6vWth+RxYCr0dVBdvkm02z3TmMss9u1YdpLAO5RA3wYCi1YFMqkVUWJpv03Y7sfinKSOUJ6SbCHlU07h4Ovq8lzxFVoIMCQReI2jZa3XYmVbMNo97nRq7YuBtOyDszJ7YCksuTIdR6SVCqNR+qDPdjDVFZDR3hIojnkcle1z1t6e956RsLgDiy7TT2axLdTyZdq/o9oyPZ12WmfCxop1LGU3CkG3FwANjfXboPbHqLox0KWB72Ez+AQ1xwve4cJdL6sBvjIgAxbiaWyR3LHsA14weHFxDIz/ePOtDrxXRTX/cKN8gmNu+Cz9iHfH13rAOG/ndPpP8ASFsrd66D0p7veA2tT/Zr/cz/AJVZXeas6PYFKVd66A9Evgspx83zHSzyG/Zb3BdCy+OSICICICICICICICICICICKM+9tsc7ovUVNOpCff3vuXaZaUaqM35Gn93CoyGwKe/p7Q1CLOnUekt4sARefPZQKdUZuybMBsYlV771ku1FuWsmgiHS86r1bTl5/p9pUanMDrKJw1jtCs/XK44HS4m677ez9Gg9FitLGM7K1KxOOwIvrTCfpFshX2RDRi8PcEb0jDQC6rSyG0r5W9gNSNqMWoDrNtuFAskcyMoScdjN2bobbRsdMcVtBAVqcMFnueO2IvZuCLR++Xc0cF72TYaej3uL0t1WVZE8sKBzl2N8oTAVnnnHifri8oItWX5V25JsVlDKVUBv23nH1Wdv1Rc9R1RJqHe0QIq2Op2qjetbNeK0c5k0zKzabMtraysafRxMaGGK1tbKAj21pCRkXnTqGrXXNkU2Z64msbEhTM0ZKoC6UV2XqK+UwpzFSyn1shN1x2dttzI4SKCyJr2K40jiM8agxuWzhsvRIYLWOzIvd0CKnBFp7fDuoLF7Zntdno96C8fdfzTXM4J5z3cHUhNV2OIsgF6gOFw4e1bxdkiKJm+xsON6atNzprXN6M39qhL7Vm6xq9UKyVAvhLq6/ah1FRiNsnTxglE2mlEUNL2Y6MXgTPOCIiMyPA8CIEUG1d7uOyjPnZZbiNyJXvbXcnRVq7fSyzrbR50NmiBNak9B2jEW2OJw0+hakGcsRm2UAoSihtISgjMjMo4IY4yL3sodgoSKChJ6woZUXpVDR09cWuMVj8ol/HrcvXLSCLuARR73y7iDgveuRmuBPvr3u7r8qyENYb+bF2N8IbASXFnGv/f9x+tT1y+fCQItfqt3w7gGxtsSktxe+/eWe7ymnxSt4HPPO8BIL9VVaqjONwOUnCVZnC2mpEZk9DMiLHEzPDHEzBFAVseCpR+oezr50bD21ngxbhKHTtTtL2E+iyj9a9BV9Thb7ssoibzccUUVg1bKN1QNo2DZzJQzJFC5LaWKGWtbU7ci9vwIgIoxr22xwui9PVWaqin7IBfnu6SpNVHb8jT27jUZCalPE/Nw8SXzb5NQjzpMi3jI8McD1Aii02VvZxmPsZLbbNxugS9PVTvcNhkMxnuGq9VYoVVt0dR7RC9DgfdQITKM6k1RtI9q64mvFZWljYRWlntobS2tbCXtyKn2AJY2OVQfNVFWlF5123ztkPqOh2lTbyN4B5Upqm1oSSYl+C3tUBgOepDRghQUInPa2MMxaWpHMPqArCWiKysbCXsLEi9RgIgItFb5dy1wXvcw5dHvgXpbqsqyMsf0Y3whMDPPOMyxzix6x8B6ARZkuyUI52WjKDSdQrBVivE03p5YUJ6p1dXVnVUJx5xr/wCUThw08H0gi89/2PbCdbr1GzCX15kpaZiqdelKmLXWZQjhyijt9ecrmgOEscThiszbUcMRkWOJ4EcOERkXqWBEBFZNRlyYatN6juhPl91TTeY7wcEjuLHTm4gOVyHoBF47vsQ5vp7sl9kLr8r4zNRXXUSm7fUJucxymSW485KixRwkZmRHaOaCzO0iL+dEXARERFZ13a05/P7KnqrWloRQr1L7pEityULlkSiyXBBThhczPbRHgUOEbsXnKRQ4mZehbYyIoi2xF7eARARARQOfZJVYzpRsSd4GRlZnaqtYV2m9IE+TLQagbicGLhMj14k128RkfaBFJXcDo7L0BuT3VaP2EvuXme0Bpu35/wDTGb+cji5cc6SLDt6tAItuARARAReQXZdfshJstWpyzcTuiVLTqTuW1dRMKvN8pyILhUWzRKwOO2snMjUyQmzL2zqczks7axjsInqZREdqUVnBBaRWVs/bIikS2BSx2NtEoTURr3A6iu2ui8kudEUby1fqgsR+NJ1VCqE5iKOzOAnQ1NttI4IijJomcR2u2O1jijjjijiIp6ARARfO3t5ewsd0TEzuWV08PDh4fLpBF5X9kB2Uf7H/AL21C6iyN4dcTa2PWnSDUVp05a8dNH0l1XbrttbHIMB09Xo4ThbllbOFvN60zwjfEVna2BxRGUdkZ4kW1v2NqjXnk3Y1Wwd5aF5wyqpUZ3T9A5Cpc+vG602hJQNjN4zJ0RRHC2LR05xWjAhxKHbR/cQQWZwQwkU+4IgIrJqNIvhVp6/E+m6wkteoys1VhPY7nWpHKqQ3XhkD1ur7i7fW64IvC1fNuJ7JZsVWx53u3c5L91351MO8G7rIq+xIlLlzm1VjdNRXBG3bcua+6GrA8IjjiicFpCZTUvBBhalF/rIbSyIvS9sIV3S8ddguDUmpxeHqeyH3i1Wc4aWIjLasKXzKqdONvk5I2E4XBDBBC5HObrcMUUDuKEis4Thgxi2u2iIpfQRARVAIvO3eo2XbYGp2xrUj3ip6lFYX2wp14UxebNXbueflQHKrNy0ja+Q245I2oUJ2ZWlnHAb0z72kMUMcJxEcEWBFgj7FroDU2mV3G89WFdZLiplRu8LXuB4UEp+54NoqFTpuQkUS7D91EcRF63GfFGZQbeNtRmUJw4RREXqTBEBFEFs79Maj1i2Ke92xqUpKquObNhEcESQjwbdVcCK3agNlyOSKKAiM7QoWq3jiOHA9sRYYHiYIvLhWe9lsZDz2DCh1yG7eyWRUO+hUxv0fachSZo0stYKrINcoV0iqC/F9wwNC0iN02u0hsbCKF6xQvo4iOKKysStIoSSN/P1b17QNj1os+Ludxu6rQ+qChNqlRqZUPZ7PfG7Z7KuTljIH3gPlZehnnh/mNs7dNu9TB3HsK3MBQgg5HoKkZjpHeg5Ye9NziQ0ic7ZX25bzsyttXXjOVWa3OwsLm8DuFl5Nfsga+zMKrkS7j9P1j1Lb2R6gVwnZI/visa6dsEsS/Iv24dfNHUNWcLtJPw1RzWOsdZphwE25jz/Ga354PNB08VSZVqU4gawLhqxFyASJFwJGRgbc/MiNZU6HHhxJB1iTBP8Aj184ixW0a9biHta1vkkDI5ARAi/XaV6Rth+caOq3b3k15eXlJVUadVFg1z+sc40BtORu7+rDfwww6xEMY0phzReQ07ch7+szcXtzLZfBfEirRdPoHZGTTl8c0qzVzZNHgiX0uYvLsdvcyWUqpzH56d9XeaFljL+beX+6n8jt/fPAcG0RA5IuAcxn2rhRr1XVnAhwGuRcGwJMESB1jYOuZhpFKT0qxyenp8olyu7vYUlI5K5N7SfBp7RgaVjyYsdv4rJKB1hciQCRNstvefgKlca4ntxBXnQoS+6pVpoSw4Otm4gYdvkx7YtzPKNj5XSbE9sf5VNUqO5hqjPfb49kKKu4/sj9QbzVbF6m74Z7eQUtwoaw8GNOtieXcrJxNz8n3F1TFmt4esLhTs0TaztvMdpVtc95c2AYc4DLZInty5hZSRVipW3600rflJ3R963uhZP3af4uV/ycX+vnT2uEdOj6xD5NoJubfHPG6Lbbxj8CwtEQSWt582g5jt5lofscF0KoF2WxrIsVYl0mVc7sXEdvoeRZ7KqSos9uYmS/o6tM4eH6RccTWEZi260ZHK8Z7DvJ56DCaPaajbW1m7P3hu9cZSOhbBXqJFPylRFY3PKGvSj4eDfkZ3X6juNguU3EgY9dvN3r6hl/g4xD3adqE+Tqka0cmNQ3mIJntm2a1d4adG0qdamQGzqN3ei09OeztNlv3RjoUsD3sJn8AhjXCyXcItKkCQcQDIuP0VOYPStM4WnFCkAbBsZc55/8LQ68V0U1/wBwo3yCY3H4LP2Id8fXetZ8N/O6fSf6QtlbvXQelPd7wG1qf7Nf7mf8qsrvNWdHsClLu9dAajXwV02+QTHSzyG/Zb3BdCy8OSICICICICICICICICICICICKyXxTmn9VG3Ms+qDHadRmvNl6ebFQWohOpJUf+XnNr08h9bEERgUypvSRtyrPpfT9kU5a0p7BbFPmqhNVIw97zZ0+ZHwAivYEQEWNajUdo/WNNyPWCk1MqoJfSVQWOhVASeznNw8nZIEVWwKV0vpIj5r0vpuyKcIPEtPmqhNVJ/8M4F4N/rgiv8ABEBEBEBFZPM5p/ntzSMx2RzRtw5P5oOaqFnZkfiHOLDO/V4wRXsCICICLENTaA0OrhJZPrRRek9WpXDJ5SVTqcsV/wCg9WGczUx3/oLkIryY7Bp/TJBlWtTdjtNhteU1NhltVCaqT3PNrf8APgBFdgIgIgIsLuO7nd/eK8qOh4UHo48nQreznO56VsR1Kyjjv5wuZqcnlwBF3zHotR+mSlNLFN6T0ypyqTcjk+enWXTlitVWUUfgxbLU8PbIEWSgRARARfO3sJa3sdzzHsXs6eHDt9bh4QRWuzqf0/pymzSPT9jtNiJc3PZQnpJltVCaqSorPH/ra4MARXYCICL528lLz8nNJ8xL7qlZuRyfPSXj3vHoBF454tgc2Ue6ZV+8HYbGVfjp7R67reTnTgdqI659aSXS00NwW0UcEMR2DReNtnQy4HGdlnoz5hk23oRQWdnaWFnZWVlZkU5OxP7FbSjYu6KrzQQF+aqbWKpk8kL1a6yTcjElWbtVCiiiJuNluxRRRNhpso4oovuoorSKI4rS1jjtY444iKVMEQEQEVpvGn9P6jJsqj1AY7TfaXKT2UJGSejVQnUkpyzx/wCuXhxBFdFhYWFhY7nl/SkoXW8y1eZAi+gIgIgIsGz1167Oqzk0oKN2+gyoqTc8ahPTs7R1iqqspLGHBmn3+TUCK/GPTKm9MpNUT6b02ZFOZZWnsoT0ky2qhNXKOrSWbOP+ZnvgivYEQEQEWvPOk3V5h4c0iYuz3e8/NRPTmOsUnZwY5w5qF1sPCCLYYEQEQEQEVpvFgMeoyPm/UBjtN+IO7jUMivRqoTrSMsY9Tzm08unl3wRXRYWEvI2MrLy8vJykrKYp8jJSX4u8+QEX0BEBEBFryq3Sbq648eaAsXZ7vao/OrSdo6xVV2d0OanJw7/ZBFsFY2HoNjueX7erHzx5OHSRAi+gIgIg4uMNcTkGk9gXJrddzWem4N+8Y9q1wpzSS6+lVIeTwpvRejjXqgkz2T3U9GxStitV16jLS4c1Dw1eZaRbsDpOnUeWyDBIgkXi3OefKVkdfgxWwDBVe13kh15trNnrF7x71seLjiDxkEWHqm3qMZx07FjmIxzaLtSBuJgZ5buqZ37cgkZDoC4zN99+1BKC5A3r7WGFvbS0v/x3Zx8+XgFJjLUHQYzyMbPf3867cNhxT0pQ13fXbINxsvB2dN+e4C/mY3mnwsVFvIXgXu6JjdK67KxVIUJ4tRe39y72oi4MOyNGcKCTVdLieUcyTsk58/xtHr3g1hGu0VQ4oNYG0wBqgNAAAgCALQAM9iweMVwxOobnPObxJVyDRxoBAMGL32X7dqmw2GFxzFg9rwTP/BZtqs949zi+5W3w8LhLwYi1aQub3s3O+ZM9qzrQYAY2BHJ2W2FSWz1xK7/PXgyvMTCM4c8suE8Mi5cxp8ovDDDL+b2HeFt1jEA2sf8ABzjmmOwK+8UOb7v4rcsJO89pXLUIycR1fivnb2EvPWM3LzEvuqVm5LJ89JTv4x6/Lyl4xxgbh2KOL5/V+K1BoBcfoPdrezof9N09w5ecMjk+RznXMqpLMRz1oDd0F49WvATOXMI3b84zz27LZAKBSAM2znL8VuEKYkHWAN9pj3beuyqeVUgmTaM93bHRGWXNac8+GvI201LzCxKbqk/wL/Mz6/noeLPfYFxJiPKi9iNoJy6cpzjkMU3CkF0QI3SIvtA/ybXCjnqpVuXrfXhBbzPLdLDoLIvBQdS0RYZRqQ40DNtuoH/JbWNxcGOcukbo4A6MdhdH1XvbyiwnWI5UXtOfRewXnXwx8IaOLxLWMqAmYMG2ybz3Zm+amPox0KWB72Ez+AQwXTDx8p4zkg/nczF+S3mK1xhKjThqJvdk7N551oNeK6Ka/wC4Ub5BMbZ8Fn7Eub9b0frfpH7M1rvhv53T6T3BbK3eug9Ke73gNrU/2c1frazOT9b9JuzVld5qzo9gUpd3roDUa+Cum3yCY6WeS37I7guhZeHJEBEBEBEBEBEBEBEBEBEBEBEBEBEBEBEBEBEBEBEBEBEBEBEBEBEBEBEBEBEBEBEBEBEBEBEBEBEBEBEBEBEBEBEBEBEBEBEBEBEBEBEBEBEBEBEBEBEBEBEBEBEBEBEBEBEBEBEBECDuXINcRIa4gZkAkDrQddeRRqmDIpVCLHYw9fYu3CQ/FYdoIdNeiCAZMcY2clplSpVt0Svz7QJgvbDOrEhDrLDEs5O+R4Hq0no0jUmhNJP8bqMqO1CKtRuq86v1yMiASLdOWxejuGOBo/JdCpRaHA4Wk4OYA4AupNz1ZjMyN82i63NG3sMNak1z7NIGq50tabb7C5/DcvNGKwgrYh7WlshxOraRB2gXtc3t1oJ+N65RFt1uxAUixB3EKoFLjATQdAJzyBjI+vd1q3Y/SL6WlKBYCYcyIHRt6hnMes/z2dleu5qF3O/JW5Hyecqzamrh1fpzO6SNRR6jYuTR7y3TnEz+XhwGjOE7XCo6Wkco5gjZvj4svX3ALSfH6Kogn/xjPfGeUz1bcoUcoxLDEahEiZO0bJlZQL1p2TPQI2qVbYfnGnpV5Z0t+YmPTTso6sJ8j/y4vtpyb+OnlFs0gCZgE8kZCd6zfQhGq248kbeYjvt0r0pC2epZiKYgZZD6w96CJG8doU8WNw+8PegEgZkDpTUactU/7h70EnIzltR1Lknk7Dt5ulUKqqy6GmzSxMexZTf+jk72GnXrFNhgS4iCZMZHedvR8ZrowB1gdY6pBd5Vs98x0T3rzO34LylSF2sypS+m74cKWlykijt9ckmxPZKzjeDj3s4d7H1us/tcAyrBYQPdT1m5vaII/eAuNuyTEg7cpxDhRjThm1NSo0EMfMOFuSd19hv7FIwwaOp9AW3K0nTtM00/U9cneMXgXtiX/Pl5B6K0Xo6lhdDPLQBNET92c+aZJHMvDfC/hBXxulNUuc4cc4GL5PjLfbnU0dGOhSwPewmfwCHm3TDh8qY2SP0x28zd5WZaPc84LDm/6P0ec8y0GvG9FRe9ws/5vENy+CzzVzfq6p5OzLdksI4ced0/te5bK3eug9Ke73gNpt85c36s+T9XM7MvUrM7zVnR7ApS7vXQGo18FdNvkExC6Fl4EQEQEQEQEQEQEQEQEQEQEQEQEQEQEQEQEQEQEQEQEQEQEQEQEQEQEQEQEQEQEQEQEQEQEQEQEQEQEQEQEQEQEQEQEQEQEQEQEQEQEQEQEQEQEQEQEQEQEQEQEQEQEQEQEQEQEQEQFDsjGcHuQVFN4oN1iBaTstM29d/aICqNHaSxRwdXDcWNZ4c0AtBJuQBJGzOxyPNbp1xxt9qyeUHAsSiXK8M7v9fgx0aOXSMa0xp+hQLgXtETzC2zd0BXDghwa0w7SJxD8PUcx7wRLSQA422bZmeaw2qPlxPhB5tcq+GzbzcymZcSFD03JGlkRflDgeEJmeGB6S0RaMTLSNA6c02yvwkw9Wk4BjajbNhk3FiG23xM7TnK9faO4OV6XBavTxFOar6LoEmrE6+rDqjWmYIJ5MNPJuACZHteoel/GaelOD+FpUiA9rGa2qQHWLZuIOzp5swvGGN0diNFcI8XVeCGOqO1QZLYIdETyYgz0IObRDWjcAOwQupxkk7yT2lAcYBO4E9gUIJ0fjG1GlrgJMiHD2kXntsJVHiWinUbUIBgyTE2AEZg5bsriM1ETswFxCYviXdjcNPkc5qvFEcrvCnMjJYZVeSOWJuJhcJ4ked9PtOGfzZLAi0meJ8J9DDGtqOaxtg82EE2sBstfIWvdbS4HcLGYE06bnkBzqbA06sAyRIMBxLgQ0ySAGtgDlE+D/2P6XmfSuvDHX1jxL6eXraEfo6pg6lTXa4APcBYxmeb1DuXorD4hldjHNI5TGuznygD8c6yNSSprgotU5m1QZ+JrzIXMoSMlxj1RIH/ADq1uvw6BwMOBFpgi8W+Npy6Vd6GN4gth1i4DMiJI6N+wj2r2BUWrhTeuzJQXxT5YlJpLVpLDIs799k5Y15AcWnz0ahYq1I35iebaIg9xhZ1Qe2oGy+ZAOZziTt6O1WG6mBegQ3GuuCk9cGmvIKrPZQOmNdGPlVJbp68gt2oVMzZLuzWx1Z6aNHXFsrU3EiLRaZde5JLpdExAhoAgTGtJddGYcva4ycjk7m2X68z7jcbl7hcciCoVIqhRxmNdJnsoTzYpIx11VVnnq9QHE4ame1lrY4+0vUekcdTcT8Z7dqtzGOY48o5nabev27AtjFZVT0KT3QozEpKyve3t/v+eI5CkZFyLi8ZDarkytqCTNhnnkM/f3qMm+zfET6VtWal0+YlM8lb2jtf/wDvzi381terhw5Be8LRDCCRexOwmBlllHQNysWkse1zH6jtU3u0xe42Rb/F15zmc6sh1Ia9QHBMTapkmozPeC7Ozv4xzcX85HF2NXniMswNVrXUxkddvNHKGV98dEc4WrNNNq1mYg6znE06ggucfqE5X3z0heoF/qqe43s8nAjqEoqJbhXM4EOdkvxijuP6ezrHoKnRZV0I8sdM0JgG3kzBg3gZfBPj/SDatLTEvadUV3xLZHlHeOaBz9ik/ox0KWB72Ez+AQ8paYoRpTGif/MczzDm+Ni3RgarfE8PLQDxYt1nmPetBrxvRUXvcLP+bxDdngs81c76uqeVsy35LWPDjzun9r3LZW710HpT3e8BtNvnLnfVnyvq5nbl61Zneas6PYFKXd66A1Gvgrpt8gmIXQsvAiAiAiAiAiAiAiAiAiAiAiAiAiAiAiAiAiAiAiAiAiAiAiAiAiAiAiAiAiAiAiAiAiAiAiAiAiAiAiAiAiAiAiAiAiAiAiAiAiAiAiAiAiAiAiAiAiAiAiAiAiAiAiAiAiAiAiAiAMx/n1bVIzE5SJQUulaho4dzmXhs8m82sRF7XgbJ2iyuGjNJYVumsLhjS5DqjATB1YteYgQTtMWuonXi6lh1LyosL8xNTU0U9+riLe39W9r1cA8ycMtPYihiXsDntBdF5EyYvItn1zfbP0A4H8HdCHQmGxTKVE1HU2OhoaS0wIymM+aMtitEYZWL+RiiSSIdMyJtB3x8XWVVcNRfTOGYG6pYWjVjKD2EDMe4rc67nU10Li9NM9wKGVEuTQ8oSO7fvsnee/gN5eDfhFVxjWYV5c4NGrkYt1H1juE+UfCxwSo4Oo/FsaGlxLsgL9u+2XfC3CG5hcA715zNiRuJQIm2+3auJMAncJQcRhBhiCDnuO3PeffeypzNfyhfLaIg9G/pQSXtqt1XNBJBABmLiNyllGpQqMexxAa5roEEWdMTI7uk7V4vNnbuPyFCKwIV5inCNJpVOK8T6wnPZGkZIzSm9V/AnLiZGRYG9Gxi7yIjjLP0nbFj91hDqfhfoxuEa5wYWzrEgiLkzvuOmNsA2n0RwJ0/UxzmU6hENDWtkzIa0C4IEXkAAusA6ZJAgKGraAL3vtYTYDZecr7eYW7NzPwofT4xpEga0yD5I1ucbr+q0LM1Fa71IoQvZYp+sbllZz7+Nid9qbi7PYx0H2CFLVZTJOq5pInySD1Wkx8WuuWj9NVHPAEuDZEiSIHbAHfnkpzLq9/VQrvOKjXl0dwtd0N1DJwT0lOz2dbTUUfT7XT8+QW2rSE3ETnb29x71nWj9Imq0Nbc2BggkA2uIJ9XQt0reozwtrH78SkqWOjcUj5fPXwiBSnJs9BnuKuj2taMxJGwzBjmJC1AviVUqRR2iU1VBvy+6lSbdSOz5Fac8jlVJTicfbPT3j4dAkUSCJbFxmY29KtNeoabXm9mnda3RnO9edpxupwPFeVHS8FhWXl5X0zy0tT3qso7/j39eosBfOLbTDQ8BthGsY2bpWv345znODpjWdd0gWJ29at8TxrqcuaCQ3lAi4MXtYhcBRbirS0l8tMHWJm2Q923apBrqF7aXYFjK0vqhb+s38lHPvt3D8QOL+y29jqLvDZvBPhTVxujatOprclrm8oEG0iwgXgD19eneH3ApmCxjK1JmsS4PljdaJgwYttOdwvXFQq3l1GjtOZ5Phl1KSmWqmWkvPySl6JKzVn6FtStbCP/AGoDMjLHhIy3hqvSwFTSOLfqnlVSbT6LVQ4ag9mHpMLKnJbHkHeY9S0RvFdFNf8AcKN8gmNv+Cz9iXO+t6X1v0j9ua1nw387p9J7gtlbvXQelPd7wG1qf7Oa31tZnK+t+k35qyu81Z0ewKUq710B6JfBZTj5vmOlnkt+yO4LoWXxyRARARARARARARARARARARARARARARARARARARARARARARARARARARARARARARARARARARARARARARARARARARARARARARARARARARARARARARARARARARARARARARARARARARARBBuD0FEHLDYLXovDryDIPPJvINjuXBmLDMVTcABquEO1RMyIub7I39C0VvGUyl0O2lHw35fcsqrT3q3JY/e5YwLsaNQ0H4Q+CtXF1XvpUzLZPJaNkkAQJggc2y0gleuPBdwypYbD06FarAcG0+W8kcqAbONs92YzyWrI1TR0XpSpRc3iX6rTEEHYYH1crb+e9lvZuO0Tgawq1MQwl0Pg1JjWuRcxt6u/bq6u3JjLDodMxL+lZSRzfkesZ8ujfLwlgNzeCrR2NoVnF1IggE3bzOuLTlfZG1aB8NXCLRtfD6tOqx2YADo3ZXEj/C3WG6yIJBzFivKRMkkZG460BEEkk5knpUQBkAEBphzSNhB9aOMAncCewKInZx0NGVdjgq1MLG5N1N510fcCFr+++f3/ANQuLtHw4FjXDelV0lQdLA0BkCwGQAGwGQBMTffms44AYmpXxIawO8oCxOwwbW5tt9+c+D0efK1duiKz6bywB5LXGR5LiQebImwvmZXpvDNxHizWkPIczVuTNxG3nyIjLYYV507YT2qy+2xTGmLYVXhUR6rZoDXbaMZEqz6vCWJnFFFoIiIsTiM9HYHbgMFwZfi20MPjmVKtVwOqH6x13knVguMQZgATuC5VCeCuhsTXrNAhr3lzoAAkuPKdkGjaRYGcl64bsmw82Vy6i/NXrAvSb8rm7JtHQHUjtmePMCnjSOIsG+3C0E43PC6NbxiPbRHERQkW0ixuvCfgxW0fghicOxxa4ggtaC3VjOdpMgy2QIJJOsALB4MeHbNLafr0ahY2hxb4c8uL3VSRqta2zWNY0HWD4e9zxqBraby7OUizmvI25TEu30nwcPW1lwb/AFxrNmMr4SqG6rnS6DNyO3ntG3bZeicJhMOaT6zqg+sQCdhk7926ZF7CFeDluJIN+2j9RabvZZVWal7jygynojEZ5vVGwizdX4W8Rwk5GvjtTzPi2xGRHDgRnDHDs7g/waq8IKXHFhGq3jGmAJc0h0kZOFiCBvB5QBDtC+EXwiUuDldtGi+m4cYGvaQSXM1XDVa8EBj9YtcHPDmuAdTIaXipT8X95O7lVy6VVtzUVrkgm2negbbcE7tYoWq8UiCI4EF90+XY4YbRwtt4Rwx2drZWkMFrY2sMdnawQWkEUJWLTjsI3HNpaWqcTxZcCLiGUxBcQ2+qGDWJyg6xsRNTwX0m7hbgCWAQ5pu0bZcCDkQ4Earm56wIMEFYJFZia2AdgqfyJVp4gkAHVIdJNr3dHf7KjDYWtoXFVA/WOsTZ0nYYFztnm7YkKNuk9L6MAa+gWNO0NAHMTAvs7N1lwqPOIceMGteBrjWtfaRNtvQLLIyTV2qzbTZRDQqoPlBSE2yKXkEiQcy5ZychYlFFH6BYQY/cwFHHFFyxRRHvjidJiseMfTGu+C7piN3MuBwLCSeLaOweoBerS8V0U1/3CjfIJjbHgs/Ylzfrej9b9I/ZmvKPDfzun0nuC2Vu9dB6U93vAbWp/s5q/W1mcn636TdmrK7zVnR7ApSrvXQHol8FlOPm+Y6WeS37I7guhZfHJEBEBEBEBEBEBEBEBEBEBEBEBEBEBEBEBEBEBEBEBEBEBEBEBEBEBEBEBEBEBEBEBEBEBEBEBEBEBEBEBEBEBEBEBEBEBEBEBEBEBEBEBEBEBEBEBEBEBEBEBEBEBEBEBEBEBEBEEGwPQVIuQN5CBg8aQYcCCDkZFujo6DHYpxGCa3lCNbyoBjntfnyy65j526SnrljNI6xL7qSlb1PnpLf629v9beHDSGEw2Ka51XiwNUklzg0gQTmYt07ZKuWi9MYrAuaKTnwHAjVk5ERltn4yVSh0/ptTpNOYkG+30KUlMTy0tHgePBnE5cD08GOnw4q35tYXC1HPxWjmubrWdiMODIJBs54iCOa8A7FftJ8MeEOLxVOlTbjnghgAp061hqwJNNoJG259cqlnai02nSycnP8AZE0plPekZKSdSEfDr3+v19Zi16A4a6CwGOdTpYvAnWcWDVxNG5dLYEPO07LGeZNLaB05prBtq1aWK1WgPOtRqTAgmdYSbDMg2tll9RsHXDxxgI1H8oOnkkOuIORHWsNLTTOo6zm8kg2MtsbHag5EEN1iCG+kRDe3JDbO3TbvQcSQDBIBOQJv2IOUJbcDMi4EZ3G5Byd+bGu8FrRcl3JEDO5gI1vGHUaNYnkw25vaIEnbuXm42WypixfEqmztj4ousyko2KeupGqBeaqCZGrJLdWP/R2wdOhzOkvbgbOxxPQWB6y8yeHbw14HgdgMQ+lWpl9NpDWU3NqOe4RrE6pOq1oDpcZJcWtayC99P0L4IOB7quJpGrQe0PIJ12OaADceU0Db0ECSbALXymWxJ3X2duWYfEw96sqmOPrmXDarT3/yfbOk8OuXLiPm3pX8qerpnE4mhTa5pc5/FlrSHNfBDSKhaagAsYD9XWvAJt7ArcDKFLDU3NDSQ0EgGcoJmLAyPVsUpF1ymlKaLVKp7Y0+puyGKnZzpUgWbLWQ0ozPa4kWJfdcBYkeOoy0kLL4K/CJwu0p4R8BTx2PxNduJx1N731qrqj3B72kl7qjnF3JIEuPqiMJ8IGgW4zglpB9KnDqWFrFo1XNu1jy2CwawuB5HKGy8FTXuNup7rQlVrrEvupKVpEk+d5d7H6N/wCgvuLpPD4RvALA18UGca7CUiXOgEueBMkxIBHtmF8+9BaZxXBjhTVZS4148YgajXOgFxAPJB2E9EWzWlrUueS+UJmZdL3NTQZOeM5KRbUiWV1A+A8DPrngeG/pxxGqtAcBMFpusXitQJBLrVGHk5zBcLCMyAI2xK39wl8L+L0PhGMipRc+k2W1BqOktAg+VfOwLoG1bkyMk1qftXc6fLyaC12/I7vI99PPSeBcpER6u9gNhaQGB8HujMVXr1KNBlHCV6gdVqU6TTxdJ7oBeWh1xG+bZrS9TE43wg46i48a/jK9OCGOcDLxIEC8AGRcACd6h4r5PN+8G41OYfDRb7obBYJ6G2XOhoaolJyQWkzLWeJmWoj0bx6CMfE7wyflD6S4a6cxDNBVamF8XxlZlOpSc5kcVXIDmvAbBBaCHAggiQZX0J8G3AGlwf0TS4wAuOHpl0gaznFkuJaS6ATNsgIAgAKKOsmxSXaag2U0oMGwV6Jr54kZtn1Wap8p0/c5GZ8hsw+QhX8Dvyk9L8DaFF3CHEVtIP1m69WseNxDy5zZ42sQ6tWiLca9+oCQ2GzNVpLg3Sx2LqajI8qNVpDQWtdAtyWyBzSdUXKhHvJXHa4XXvVh3pEo6WJu70hUxl4qrTPTgROE9ObOvHvacNPsngd+UBoLwhcVRpGiys9tNgpPhr3F8NaKW15uCQ4MNzqhxFsHxmhXYTWPFuABMENOyxnkyL79m5afDbDcLSqAVGPZqPAc2HtiHXtBiOhY5UqOY9zYI1TEGAcuhevm8J0U173Ej/IBjavgs81c36uqeTsy3ZLyNw487p/a9y2Wu9dB6U93vAbTb5y5v1Z8n6uZ2ZepWZ3mrOj2BSlXeugPRL4LKcfN8xC6Fl8EQEQEQEQEQEQEQEQEQEQEQEQEQEQEQEQEQEQEQEQEQEQEQEQEQEQEQEQEQEQEQEQEQEQEQEQEQEQEQEQEQEQEQEQEQEQEQEQEQEQEQEQEQEQEQEQEQEQEQEQEQEQEQEQEQEQEQEQS3MdI70QNIAeMUw0ACwMWFwN2y/aqeqTrtuc955lab+VVhDYTyV2/MblXklqrCghzu4fxxkD6NO9o7Aw3h3Tqs0Ri6jHPaW4TEOlrnAjVouMktiJiZve4WU6Bph+IwzSAderRaJAI5T6Y3GLk9agAdD+ez8myVns5nA5pmaIsCWZ0lQi5CIiwLDgw1j4qcLeGGkcVjcbTbpHHANxeIaSMXiLltZ42VLRFrmb3lfQ7gjwNwWDw+GPiWEawUKLmjxajqta5gdAGpF5mNnSrYkbfcM5KqMvhKzUpPZQkcdPg5N7DrC18GtL48Y/B1HY/GQ3F4d3KxVbZWY45vuDEGd+xZTprB4QYPEU6eFw4nD1miKFIQTSO5ovfqO5ejBnOOXdTVa7ol8NyuFDRnAevXh38S+kfcbglpWnp3gRgatF4cWYXDAuBkktYwGTMm4O2+07F8xeGWjX6O0rXc5uq04isYyF6jvYZysIVxDNtJ1Wv4I0mNgVGOZJAh8iqJ5xIG/KJmysOOPjGEa1ljABIzz9e6dp2ILVh6IxmIpYlxIZTa0uvA5DOzMGy6sLVOjcI7CkazqghpNzyucybzsk7CCVEVshV+10MBe50e7AoSk1eVe6HlB1PT76pN2enHV64cdbpwP8A0fs/e14YmRHqTw0+FzR/BzRlTCMq0matOrSJa9tOo95HKawgHlCdZ7gCGazS46z2Nft/wR+D3Fadx3jlWi51Mva8h7S5kAk3mQQbCMzlkJGh12ylbfpkaC12/uua3JPLDgXFpa9VnW8nhj64l9xOHqp6+nr4j44eEvhs7TVTFF9VzxUq1XBpc5zWhzjAaJsALAZxJMkkn3To7RtPCtptZRZTNNrGkim1ps2NgF7STvkbIW7w0do+nTdVc/VbeT5ImRz9M9pWXUCRTILj5JsSTmCOyY9SqJGemJGclVCXw3VKT+UJEsSx73e/zGTcDOFWJ4PcNcDjCzk0q7DMQIaW7TMZd4Vg03TGO4O4vBtbDnsqNtzk5bZz6rXW9dZ7zVhEgSzfYk8cCmvSSTPLa1KRQmSBCRGWREDA9rnRGWJ7SIsC/nGWOG19++FT8rh+G4FYHAYety2YZghhILXANOoOTmIFxmZjn8tcBfA7XrcIsVjsZhiKbK9WOP1KjK1Noc3jqogtio3WIY+wA1nDW1dXvrqT8lrRgrbeWZ+WljZs8c9DOzk8ZlkhwQxR6TxLDEjPTjhq7OxPyTvC7o/Tug8Xwr01juKxOCa6sylWrG93NENc4B2TbRtNjkrD4b/B5UxulsLTo0XziIosFKmNUOoNNTlFpAaC0ugu5JLRksI3g65Qv6ZzTaFv6z5OcOCcncTwcCscWOGG2wNsHFriwxwIiI8McfP35Tf5TB8KWk63A2jVdgsBgXvpsfh6rqIqagzc+mWudOp9ZxLiSXSStm+BrwdDQ2Gp4rF4djqwphjC9gIZTDi6A0lw4108p4EkANB1W31cHh1zGtc6ADDiNaBJvmTnJzzXo0S0aoJAFoBgW5rIIc0Ps4B/M4B3qMqBAMgX7J6+dUc8lJ6smqiOsJ8oqJatI5PnpKdkcqpKij+TVhj3sBX6E0tU0DpehVbUqUgHtPJe5oiR6JAG7LqzXXpKmzE0i1rGDkxZrejt29MGF50a07EjVy2qq+Zmj8rKTlMp1dt59lwz09DutLRZ+zsp2wblvjifojVtLe1bRnvkkkY9y6I8OWEZozBMr1apqsw7G1HCv5Tmy0vdrBzi98a1Qlx1nlxEAgDAKvBhz6j3ACHOJHJG3ZYRbcMslMHeE6Ka97iR/kAx9G/BZ5s77J7l8+uHHndP7XuWy13roPSnu94DabfOn9PtKszvNWdHsClKu9dAeiXwWU4+b5iF0LL4IgIgIgIgIgIgIgIgIgIgIgIgIgIgIgIgIgIgIgIgIgIgIgIgIgIgIgIgIgIgIgIgIgIgIgIgIgIgIgIgIgIgIgIgIgIgIgIgIgIgIgIgIgIgIgIgIgIgIgIgIgIgIgIgIgIgIgIgkGCDuMogYk6+KpiBEjn2CZ6I6lS1p1hGfNnkFQqsiSqjqifvKyGsJ/aw8z0446j3hbeG+GFXQOOAhzjgMXYXuaDwLDbunp2lZdwecBjMGSYPjGHJyv8AnKe/IRt2epebu2sPQLWal+k94yx7PJ56d4fBfTWiC3SmkW1OS447FkMdZx/P1DYOgmc7Ar6d4HSDfEcG2mJHiuH8kAxNJm0AgSf85L4iwmsdH1qebSx7XZmRDgZ2cq0zuXdUHjbKjSbljwRabtIy6xJgX6gpqblrqNx0OQk+YmPTLTnVhvYb+OnN3Hrlho5D4B9jvyWdN/Lng24ytVa406TQJePquIjOcrdmVl4D8O2ixo/G1HNbqy5xkCDMkkjeCIAjbK2vHoMPNbRD6JHJ199jNS24Ts9a0poua2HaXwANuUwd5ts9dpMK06gOqXY7JdDwmJmT9byGsKEju2e9SVFY/J1A4cMd/hGLcL9O0OC3B3F16uIo0KjaDi1tWqyk7IxAe4O5zbasi0DoR+ndOYagKb3MdUYCWsc5sAjaBAJ2kE7dxnzE05YEw1c6HQ6FfOiqFTXUsVAqnUGd++zzeDjLl/JZl/8Ao+3te8PjN4XvCPpDhRwgxdAV3uoNqua0hzizVBP1gSIJ5RIMSTkCAvpNwJ4J4PgnoLD1RTYH1KTdawDgTGYiZExftW31Mm5MSNlnBMfhfsHHHg3+929JDzzpKi6tJc/WIk+VM79pjbbMdqyziGRrAATLs8p65HP3LLgtuFDcPfKL9QknfnnG3LPOBMxMTbfnbrQcH6Rw9XEtrNZBaRfVOY2m2+Nu0TvVFj2DDubRA1mvN4GU3kxM5795zgAO3TVMaeoMpVHktaW2JsQCJtNxDebeNy78NicPotnGtpjWcAOSBNwJy3TBy68lUejzFhYzUvL283uWaw3dq9US63J5DF10bwm0twZw5wmhsRUoYNzQyrTY4tDgRBm95vbPfeFYMfo/DaXxzHVKYcCQRLcpAynKLfGdOLPicEeENd2MoPLMYXa9V7nQTkXGXETIkGDfZlbIcZh6Gh8HSZQYBIAIZsBPN026OpBOqWck5t5J6RY+sLpBkAnaAe1BybdzR+8O9Sgp9PYc+NUuLN+T5IsLDu23O3coENFzlt60F2w9LE8TTmp9UDyhstvU+MNFoy5wPUclqReE6Ka97iR/kAx9/vBZ5s77J7l8t+HHndP7XuWy13roPSnu94DabfOn9PtKszvNWdHsClKu9dAeiXwWU4+b5iF0LL4IgIgIgIgIgIgIgIgIgIgIgIgIgIgIgIgIgIgIgIgIgIgIgIgIgIgIgIgIgIgIgIgIgIgIgIgIgIgIgIgIgIgIgIgIgIgIgIgIgIgIgIgIgIgIgIgIgIgIgIgIgIgIgIgIgIgIgIgIgbZ279vaoIBzAPSqgdGMBqYTEsdLg7D1mwb503DI22qqwji3FYYgkRiKJz//ACNXnXqmiZu1HqKkFqSnurp/YNf7GvsHpLQPh54bNG1NG+E2ryTTa7E1iWDkNvN4Ai/r7/pv4P8AH08ZojDwQ8eLUYJ5VhTEZyRIt1ztVjjWOmhx+lAGCwpuMCLEUp9kzAGydqyCnRLcYSZgvuDad27Id5EKR7Y/HVudSqMz5iY9lyKO8JHtZtnwfRvadZj6CfkYadbU4Lu0GarhVdUc3VL3T+mcctbp5tma8uflJaMNWs2uymNVrZJDbEarc7RMRzbYO2Ta3t5ewsd0TFvuWVlPo4T/AMh9D9N4nCaC4MRXqta+mw4iC4A/mzxu/WuBtzvMLyjgMHX0kynhaDHSajWHUF7vG4crfNyoZb1F4WYq25M12vbkVOW9PYSOr1xLHH2Ojl1kWvr4/JH8prwunwh6VFHA4uq2lRe+iW0Kz2NdxUUzLWOaJllxEdO3214KuAjtFOo4itRZrOZTcS5jS6YmJcJgEnODedt9c2O3M41jc8xpS5T1QnvPsn9BmPKemawwWjWh3KqEXc67pMZuMkmDtkr0DphxFOnSEkNDRGwREWy3W962iGvy9zrlxM3zO2/ZzLi0nVaJPkgercghEEardw7Ahvnfpv3oJyyUEA5gHpEoCAAXAAO8BBLSW+SS37JjuhciS7yiXdN+9B3ika+V99s+bpt3lQqPd0vuzJ26C3VuDKG/54Y6MOHTgBpGhnbdbLm6b9xRVgpzcybnebntKIOQc4WDnAbgT71EDcOxakXhOimve4kf5AMfoM8FnmzvsnuXy44ced0/te5bLXeug9Ke73gNpt86f0+0qzO81Z0ewKV+h6UoIdGaSoyhL7lVEinLPT56S/7g0+XkLriF0LJQIgIgIgIgIgIgIgIgIgIgIgIgIgIgIgIgIgIgIgIgIgIgIgIgIgIgIgIgIgIgIgIgIgIgIgIgIgIgIgIgIgIgIgIgIgIgIgIgIgIgIgIgIgIgIgIgIgIgIgIgIgIgIgIgIgIgIgJIGZhAUSDkQUBSg4vGsx7Tk5rgesELspGKtM7qjD2OBUId8REyHX55TGJ7kcOR1/e1Zv8AX8nDoHyC/Kw0a3R3hDFRrdUF7na0aoJLAczln0STmvoJ4FMd45g2MLw4CkwESD9UDeTu2fjrGPMuGHjGlyXAlhpubrGQ29M7TbOBn1Zlbtq0WsxBdAGRAneOvaCLcwkStm7njjzbrw2MfYrhyw35/HQXrjLEtOrWWvHh0D0l+Sjp1+ifCCzRpqamFNUnWJincE+UYbJmJ1utaU8MmiRpPRdZ7qbnFrJjVJ8m+4REdW2wW0N9KvxSNjNUYZ6h6am9L4npI9H6B7Rnv6cT38R6P/Kk8NWK0BjBorBVjUp1aDqJNBxqCalINM6mtBl++1txWpfAj4PWaV0lVOMoOYym8vY6swsBAlwILgGmc7WO/fGGPm9Rwtepx2OxDzUNSo+tBdJl7y/KTnJt+K9cijR0eNSkwAU+QC0bGiBkDu2A7Ss/MC3R0NBlcoKEpKzSt6oenZ7r69GntlyjFtJYippCqaBDg1sgSCI1YNpsct995XAu8bMusBeD7Mr22dkyFlCwt5e39jzEpNefDvadBb3CLIaVRttR9reS6LWzhTIFpFrZr9DiGuJgNJO4Ak9gUyDkZQQiAiAiCYO49hRYjdVRpew3Unt/01Nb612BftDUeMkuabH6wjvj47QXaUykZiwR5pYt/ZStPa+t4d/rDjpqm2lcQJOyD3TmfjeWSBYjybOsdxt3oL5X6LoJAJuASN4CmDuPYVqReE6Ka97iR/kAx+g3wWebO+ye5fLbhx53T+17lsvQHoMn7ud/gIbTb50/p9pVmd5qzo9gUwzP9qrX96qN83jELoVxAiAiAiAiAiAiAiAiAiAiAiAiAiAiAiAiAiAiAiAiAiAiAiAiAiAiAiAiAiAiAiAiAiAiAiAiAiAiAiAiAiAiAiAiAiAiAiAiAiAiAiAiAiAiAiAiAiAiAiAiAiAiAiAiAiAiAiCBTLZJnLdFrHp3KMYdYNHkyLR/tOzfHNOVignjA0EEiPjbl7j0QmEwznXM5Z9vTOfwEFJxjPSC5nC1ASINifqu9y+e6eXz/wDdEtfTLgC4QSAeiUGGeCCQYBBPJOQ6lGnfnYCwuORhudro6qvTU2hrDfnsiyOVcdPk63IPBf5Xvg7fwk0lTxOjmGo8QZYDrTqtJuL9I7YhewPATprA6Mw81awEAC7ja52G0yDzQOlaRyVFqwT2J2FN3uRYHieQ8kl2T89Wrg8aVPBRwuOjmUMLgq7nnkBzWHXhxDZkNmJPqm0lb9x3DnRFSvbEUwWw4y9ouOnu32M5K+m/Qavzfn01zJTHVUxRQp016SnJ6fQcJAm+WBkR4/7RGZcuoZNoPwU+EvgZg346nh69OqGGo2o1rWvES6Q4DWEW222gLFdMcOsBpPFNw1U0atGsOIex+qWPp1GhhYeZ7XRYyda2d9f56emFWcmlBQmJuampyeyhPTs7+McNXmY0nwj0rw/r6TqU8cx9bVeWk14qODcidZ8nyefrGzZWDqUa2Ap1aFOlSJaL0mtZI2zqBpyjO5zlfEW7xp+HbDjDneU3YHZHmN5EK4YF4xUtcBbrv0zINhPsVyaFVtysv+FN75H8/BrFOaWMxp1qNBxvJc1mcXOQH4ibruxWEoUs3tZlMOAv6gD7M1a/+o89XhxxxFzY9tamcNWYxjyAy7BO70QRHP0TYqlODbUGsx02GRB7zsyzi82K76wXFmR9jrCtK73s4/Dh2O9owFtODboh7qrg0ipIEgEcoauRBnygd2XQus0nYeZBmej3+0HtXaWD/eFh+ON0nr9O6tGPX5eT6aY6E1yXjJ3KEC3Kvu51K76wqo4LD2RLpM3/APofKfe8YHQcAndzfgi7Swq3MfhDflC4PT2nQfb8OsU7NGCchnHdfoRWauPhYcZ7nmJjcsro9JSPa8+sLlR0aBEMBg3kC8dMbOjaiteRsZienJVPlvZU36n73n2NQ78W5jGkABsNjkwDYZ7OefWi2+kJGXkZOVT5f2LKSOT9fYw5N/f398YTja350EuEBwJvOR5z8GFBuD0FVgtukcScfjqFGmLktBDRG7YLbJN788kLjh6gpEl07+aZ6THTO+c1WWcvMWsENpiX3RY6uXDexGycJwMrVsNRq8WTrsBnVO88y4v03Ra9zZFjGY2LTy8J0U173Ej/ACAY+5ngs82d9k9y+XnDjzun9r3LZegPQZP3c7/AQ2m3zp/T7SrM7zVnR7Aphmf7VWv71Ub5vGIXQriBEBEBEBEBEBEBEBEBEBEBEBEBEBEBEBEBEBEBEBEBEBEBEBEBEBEBEBEBEBEBEBEBEBEBEBEBEBEBEBEBEBEBEBEBEBEBEBEBEBEBEBEBEBEBEBEBEBEBEBEBEBEBEBEBEBEEi5HSEQXHEMa1msC0nVyEHLfzb+m98+NWHOG73QfjnVk1GXFBuM9UWEeX3VNJOjX+J9eHiPRwDF8XVcxryATDXEG+wGTlPPvjmF8p0Th6bw0Oc0axaLkTc9W+bQc9y1Bt64Oji9J/v36eXXqPRyadeu09WD3AXhxH1dhO+/bfes7HB2iWglrbgGekT0di6u3rE8P6pld/2DqPh0eDgwLAcTp6vG0HYeSL7FxfwdolrgGtktIHSQYVLzW3xxhKSvXkeTg4N7Vp4Rb6+CpaXacTjw2rq3h0dFukDdPZao4O6Fx2jMNVNKtqXcY1gDcnnvPNecozXV29TXxMflB25HVq8O+Q5aO0nwYwOvQraPpue0O1ZpSNYAwZ1D9aDnsnLKcK7StXGvms+A45vsYNxJN+g9QXaNV/ujORBywsTc0l7vPd0lO+eHX3tesdeKwuP4RaFxYp0KIGpU1BFIEMGtq2MEW3yQbK54fFVxpWjrvcBrC5cZ2CZJtn/lR9VTbhNCo76QfwVKW1g5HhyOenTpw5OuenAfKHw34XT/BzT+Ia2k1rDXc0kNYARrQTIjYenpXsDgti+O0Phi1xcX0mGJDjdoMEAyCMjtusfDW2jdHP0vi6FJjHVS9zCdRpfdxBI5EgmTHxbIjXZozDvque2nYkF7mt/qj4A6pMLr90+QNHmXxVdIKZmnBJbgRGxOljk5GcR6V5xcG2wwM9J4Y7+Bl9FPAp+TvhOEGin4jF4YNLsJUeONaW34pxHlwbWMbSd1l5g8I3hgr6LxrKGGriBiGMcabhUloqNDmWJADrtcSSQC4ATDm66VMoCjs59rqBIL82SYkzuMlDOyW2wPRiWPIegjwwPDHhHgv8oDRTfB5wlqYTDizcTVZqMHKgVIEtEm4vFrdS3PwI4V1tL0cNUeCRUo0XVCCXMa57Gkt1xyTBJE2kAb4Fh8ySX4/nfiPkGuMXpM6T0Th608oarnCbiCDeMhzG52Zytq4hjatHXBblJMiN/Pkc78/OqbmSTH4O4P3HxcvB2d4VDdOarGg7GtEzuAGcq2Lq56lbhlz9LzCTNa97v6PM9PXE/LrTaRe3lDb1orDnkpQSrbcyhLzcrNlwa8fD2t7tCro4lriCIyBtB9+XwM0XXi508VDSN4tsHr6enmRZMpWlbuXjUJj2KkyOPg3j0dvw6RY8dV5D7i87bj3no5usthBgmMqFzyJM60C/P057DsuiC6aB0dx+msNTI1nmozkAS68HISdsz2K26TcaFB7m5RM3gCJz3A8/Sc1ezetpFSRU6escTspmXK0g0Hq28RcPCRj3loXg1S+SsDrYczxAJmmZkl2dtq0pjeET2YqswVRyXxaoNw3W+LrRK8J0U173Ej/IBj6JeCzzZ32T3Lxpw487p/a9y2WoB0GIus8BtNvnT+n2lWZ3mrOj2BTDs/2qtf3qo3zeMQuhXECICICICICICICICICICICICICICICICICICICICICICICICICICICICICICICICICICICICICICICICICICICICICICICICICICICICICICICICICICICICICICICICICICICIJJJzJPSioVWRl1VHVEeYLCVVpHJ+nR9Bb+B8urgHVVaDSqCASabwLb2n2rtoucKtOHEQ9mRIycFFpbyMxIzk0nzGmalJ7J+HmfX7RcJDTFXDOw9V5cLcY8yd2uc55vV1reFHFCvSphpvxbARvhoHs23Nl8B12qWAEdnuP+dy53p5k32m89V/i6BJAgEgbpt2KdZ3pHtKDrNNhmWNk7dUTfnhQLGRvndP+UFXSDcPgqrcO8lxY7kg7TMWk5H1LhihrVWOGyDbObWEX3Xy6lje803JhVeDDdCPITc1NVCaqOn7ikpH75LDcLk8zwLgMfP3w88CuFPCTSQbg8HVfTq4hjC5rNbkve1rrwTkcszfJb68H/CihonDHj6g5DC7lu1vJaXZEn8NuUraC7ZdCzctpV8VXT5ObXvvghsvTklu6sF9xa8XTpMzw39WOkb78B35MjeDlXCYzG0w4ubRquFVgcAXtDnA6xMGTFxGcmIC1n4TvC5T0rTq0KFbUEvZrU3lp5JtAaACCJBvnYTeJCB70p6KwGhsE2hRcynFMtimAyTqwLNI277leXtd+ksQ6s97qkv1pe4ui5uJJjptBFlG1X6wKwqo6P8AufrfeDV4vpHwz/K2wrvps0k08qmDOobtg0AbNNt5np519CPAW1p8Hz3GC8MgOIl36R2TswbDq5rrDg83Yc6uj8cCYAdTAG785cAZc3YFtnAOJ0O8kmeMNyTPli3sQUou0TeRf2rsbkOgdyCRh3m4m1zFoAvv9ilYtqrYeoMrMa9yTxfR2d/HvC/aJxBe4NM5gX+Nuf8AgSWARk9Shrt1soBMA/46efmKLZKnKVkptysx+FK2Ch4tGjyaOuWNYqqDLQRaRnuzPV8bCSv4YrWYdYOGwgjtk+v4vKRNhtsrVfDjl2sz15wTH4pkfSP6Y+ne7JjbXgU0DiNP+EjCVWUy+mx7LapcyzGjIiNh2ewLFOFmm6WjND4jD1XNDnMdEkTzXN4vPVOSyPQiemDo7TgzLE81UzTpP/qj4B9Qq2hxh6ho8U1vFtptgMaI/NsOUc68VY/EOrY3E1BVdD6riOU/LZktK7wnRTXvcSP8gGN++CzzZ32T3LW/Djzun9r3LZagHQYi6zwG02+dP6faVZneas6PYFMOz/aq1/eqjfN4xC6FcQIgIgIgIgIgIgIgIgIgIgIgIgIgIgIgIgIgIgIgIgIgIgIgIgIgIgIgIgIgIgIgIgIgIgIgIgIgIgIgIgIgIgIgIgIgIgIgIgIgIgIgIgIgIgIgIgIgIgIgIgIgIgIgIgIgIgIgIggiQRvBHapBgg7iD2FR71wQzQ6hKnSqt64JHR58J9/QNdcJMM2gCWtsSTadvq5s+xbO4NYg4gta4mwGfMOfbfO+zrxOMUwJFQmTAuDrWM333B9gB3LKtIAMDdUbRbfPMNqDk7M9J71xbkOgdyCIm2+3apQdTWP0bUBqnWZMxM2JJgRunKNkC11ypjXBMfAmZy5t25beXe51PnpPc0xLyk0qN6eV9wzvF2cR472BaD8y39h6DfwX0gxvjmBpVKloL6f1h5JlzOi2cdaxTTXCDEaODqVIvhwLbaxBm2Qz+JyvtIMtNQ0BGHZqtuGwI5MWHUDvMbAtYY3B1sQ41HVC7WJceUZ5RBG3MZbOpBTu0fjMedc1SALwSBtkjMdnVmuzBNOFhpadxt1846hsO9RyXh+iov8AuBH8I+Nn5XOFDPDTpKcmMYKjrQIwwA1iLC4694uvoP4C5+j14i5b5P1vLfBjPIzluWEh5GLXDAaQc1pLS9uo4AlriKl4IEHK8HNbXwH6neNvGExtjjM4zhfm3t5eXsd0TExuWV3928G9r18OjXiOjC03ucAWuvEktPPBy6L712jIdAVhqtRm+lYbnmMqTWH4F3z0no8PBvGMow+FDmwW5gg9Yjmz6tm3OViZxvFYdfqf6B6V6SktfCWjg5ODsioweBp4cl2s0XJzE7DlJ9W7Yi4Q2A4FW2ld0J+S5Xe3b3uv5C0jjjtJcQNVhkwQIM+3P/KLZbRYcGrsGXn2TMYyaxcTrGAZN4ynfzdOzNF+gZTZVPJIdJjkmZmxsCY7EaQSLjMTf4hak3qHjuFHQWPYTHppWns4J4/6n1cPDpHv/wDIx4BM0jwi8erYZzmsAcHmk7UEMefKIjpv25ry34etO1NH4xmGo1Ja4wdR2tYgbtu8b+cW3Wu/9BWmnvTTP4Zj2BwsbTwvCLSmHGqRSrsYINrUKW5wFsslpzBFtbC0aryNZ7NYzAN3GJkboWmdfrDGpy8X/Ao/yBhv8OjHTycJjY/gs82d9k9y19w487p/a9y2XoT0Hj6zx+kbTb50/p9pVmd5qzo9gUvbP9qrX96qN83jELoVxAiAiAiAiAiAiAiAiAiAiAiAiAiAiAiAiAiAiAiAiAiAiAiAiAiAiAiAiAiAiAiAiAiAiAiAiAiAiAiAiAiAiAiAiAiAiAiAiAiAiAiAiAiAiAiAiAiAiAiAiAiAiAiAiAiAiAiAiApFiDuIWrd5ND9HTUFwS/4JPZPnuDRweU+zwYtwgp/m3SALGAR8bIWdaCxLS5oESIEX3jmvzjn2XJ1DGsqjHCqYkSZgWm879kxzLO/LaLzIFzfv60HcMhtXJARBT1C3W5Tp3axm52Xz68ulc8O2o6YaTzxO+189vwFmOh65kp4bn/BZuR8WrHD6fHlGh8TQZqSWjVIJy5s43xv29JVm0rgKtVpbxMlwLRLZMkwNk3sOrdC35sLeXnrGVmJeY3VKzf4bJF4d7g6+PXGxKWm8LAaXskAATEmLfEepar0porTOhyXihULSS4S0kQTINgdhzjmjd9BdKZbimlzDaMmmImSZiO2NshW/B47H4hzRVo6uq5pkt2SCdnNPRs2KLu9Q41iRrMqI6O35tUms1Weobt3tJ/Trx0fQPjn+WTgKmjOHXCvH1W6o0oMI2g53/wCKkGuDDmNx1TfsX0B8AWkWYnQ7qTcgyC0eTPRcZ39q1pPmoKuPpdJQezw75aOx4SHknB1adLgVo/CPANWk+s55IGsQ+qXDWO3PaT7DunA/rCsDZsOIFtXI3DchzjZvyXV8zFYVrfdDgdG6uxlbt+enHePQODdJ0g1oinIAH1Rsjcpd5Tuk96uiRpi15HTMS82p+7Z/z7/hEnSrNVwGqJByIzjoUK8pCRT5Gx3Onp8pK+4sOTz0DHjUeS467rknyjvneirBwc50EySQCRJm8c6kZicpEoJwNfCYjC1G6WeKGYaTyZEmDYgi0Dm7+59FtRszsveL2nd8bwV+dFvwauwRefZIxeOCPB1+O0pQZoQVMUypiKTHBus+z3tac5yHXa0GSrRjcRhsJQxDn1GtLaFVwMx5NNxFx+PMdqi1rgqqE9WB+S8/MfelcNvyP6HbmrHRj4uQfe78nzgd8wOBNR9ehTZVqYNlQuNNoqAvpFxvEiC7fu3r5y8PuFQ0lpeowvNSMRVaNYk2a8gZyYtPNnzqXG730EqZe9JM/hmNFcJtJVK2ntKVbnXxTnSXm/JaFd8C17sHh3CwNMECBa53mfjctQq72H+khU9wo/fQN/UWrt46Sx1b88FnmzvsnuWFcOPO6f2vctgqH9CQ/wDnDwmNpt86f0+0qzO81Z0ewKXxn+1Vr+9VG+bxiF0K4gRARARARARARARARARARARARARARARARARARARARARARARARARARARARARARARARARARARARARARARARARARARARARARARARARARARARARARARARARARARARARARARARARARARARBIzE7wodYHoPcrKqah5xsN0J+GM1uHKEj+mW5oxIvPkFo09TBpEgTI2dAtzz8ZK78G8S41QCSIcYMc/uGwbBlko1BrOtTAqOkZm8i/Ts6N+Wdgtw4U61MXB5I2jKL+ueuyChUoOLjDXHc0nsC50261Sm30nsb2uA9qtWwnpi30bo19JYd7hLEt7vDAsfpmpTLoJsXDscVvHRXAujVZTcWtJe1pNvSAMQL53vnNl2iU41hDUpVYT5j01KT2UJIvM9/f3t7TvdWD4SVGTyiNWSJJEG5tJGcAjcZsrviOAWHgOdTbDYdBAvEEjnyNueYhVSU8XQhzk0oI7gVkrdc9lD0lO+pPB549fgHTT4a4ptdrS58a4GR39eQk53g3iy7ncC9D6coPbUoUgWMgawi7RFpzynLOFJDdseKu/2evK7o3JNTSSuZPkZ3cPY5NWPe4B6J4CaaqY6g0vJMtuTskbjzm4vlbevJfhVwGB4GV6zaNHVBLwHBpAJNhBgiJOw5xdYuvlFueVp1FLy+mKeViwLf2pxYY4f/m72nSPnd//AKL6PZgG8DMbQbNTSVXFjE6g1i0MfTaOMDZLebWi2+YW2/yWdJuxGFrue+DUizjHkuqRnGYcBt9a0THzsxlY034jB0zNOlSw5AYNZs1GAuytt2nO8jb68oNLcdUdBAdrXuAZb2XBO+8bZQUfEPiYPZ7yFDmuknVdmT5JjPoQRxLht7veuMHcewoOSQRmCOpAygkEjOImQNgG2clxLg0EkgQJuQF3aW3V9xW3oCQkKynNcMnI4EWvhPe4OEZdofwVaY8KJZR0ThsVRJLWmKFUTcibtHP3ZELHdKafoYHDvfUxNGkGgjWqVKbBIm0uI29Fo6Vke3pw4GcaVMOiXk5WaVpHKEjJYfe7Vy6NJ6cf8vpT+S9+S8OB3F4nhCwVHt1agNdoEFoJB5W3mz9RXk3wh+FSthK1Whh63GB+vTmm7XB1uTcskbfxUJFaejPU737rA+hmJq0zoirg8O0MYykaY1bDVaNURAAyHOIOZFl5mr4d2J0rTq1HH87U1+VJPLOtET07u5S9Xe+glTL3pJn8Mx5J0xoKkdJ40ksJNYm8TcDuyW+NH4Om3BYYHMUhkOlawVpsN0PxU3vSKPy4eoBF9B+DfG4fBZ5s77J7lq3hx53T+17lm6jtiVhSvRv54dsy19vx9fabfOn9PtKszvNWdHsClyZ/tVa/vVRvm8YhdCuIEQEQEQEQEQEQEQEQEQEQEQEQEQEQEQEQEQEQEQEQEQEQEQEQEQEQEQEQEQEQEQEQEQEQEQEQEQEQEQEQEQEQEQEQEQEQEQEQEQEQEQEQEQEQEQEQEQEQEQEQEQEQEQEQEQEQEQEQENwRvQUlemXU3SN8fWz+PYIVXo2q2g8E7zA3Zf5UYr4Q83HgvI+n0pPYyJfRqPRifnpGsdPUyKnJte8CI7PcFs7Rlc16bYN4BFybW22EHqnmVsiziwHQFfxkNqA4S1w3gjtELkx2o9j/AEXNd90g+xWCqz2Q7b0xLze5fwGd0+fngMRxeiDUDrSCXGf8+q91t7QPDynTNNjnAFrWtufRAAmw7Lc4VLYLiPO+x1CU75cPJ5RjGJ0BU1iWgggnKbwQbdG6c+krPmcLaOKDBrti09Eid9tvPz3V0JUioLltudHT5tUmpTpKRyqRd7SeB4cnfFM3Q+kK9VmrQMSByWjZ1c0TzxvXHSPCDRlOu2q2u1oAE6rtUA6twQDGd7jPPOTvxdYsHAyEN92D4kJproBYuCTWVr1K04YuE8deg9Gj/ePRqMb74C08bo6nTbVplgBZmIgW1p32MnZYLzh4ZMTo7hNTp08O9lQg6jw0NOtJBBN5BaRAOZDztuNNrxWyMXAqqwNln0/vi3fHi70idVp+dlEaoyAaSaQaFFnEWcEOLRhx1ltjLHgI9sPNn5Y3BZ3CjDtGAY/FvphrAGsfVbTfUaNVodBDH1C12q0cpxaSC6JV08DWiq2g8WC+m7D0QymWOL6Y1y1z9aGMJdqhpa4OeQJIhgOsTqMqXrbsKLY7oVrx1E5eW4IapsaI+xg6z0eEu2Pmro7wR8OGVajcHonHYpzyQAzDVazgJgEtaxxhudxYbV65xnCrD0sOwFzAQGgmWiYgTPb/AIssNuPZK7jDdPCZr+3l0y/AmaiPp0FoPAyxbTVIsdZYb5b3BkFDwDeFDEvbT8QdR17jxniMI3YYNTEuo0wQDMF02ytah+e9CPKba8NAcexsk9YWMLfZd7lFhhud41Amsf8A1XvZL5N6I94i4S7AvLPyafCe8gvw9DVtrFuM0c+2bvIxLhlO098PnxhyQR1yy5G7yQR8QsbuTZlbt8hYzOb9g914+CRZJcG/nKZ7/aGT6K/Jq0vUexuMpNDbB5bWw9S9pni6ryDu2x2CnxPDXDubAIbG4Fu3bAvsi8ZxC0tqds0j4VLGal6X03yZgf37ea5r3z9b7aLRo1evg+UhuPQv5KuiAGVsTU1jRcyoA0FvGBh13AOqQWEhsAmi65uwjPGcVwsY+QHeUCDc5mQJjqm4m0FZP2MzZqqj0drnNNi9O5zdFBqrriOS4smiZK5jKxgR5/N4i0ZrY9EDfLE6h468fWfgs0Ho/QVdlGng6NGnSFNjS9lB7jqNa3Xc9lJgBc4E6sckFrHlz2F7tBeEehidI0nvo1qwdqO8ipUaNVxmC0OgwQIcQXAzqkBzgfW1Xiel56cZqgnzEpNJc2hZQkZ2SnvUlQR9XB2DPyY+j9IUqeLpMOHAYAAfzXJED7MWsdkRzWXnSng6mCru8Y1nmbmoS+8/vSc7ge1ecWuFv/pmqh7+Fjz148mHBo5R3xGicRvDCJi9muVHXP8A/wBOlGWs2OiJHvUul3roI0w96KX/AAzHk/TDnfKeN5R/THadzVu3Ak+KYe5/Rjb0rAdW7KEnsqe4UfwFq4Nfh7G4/BZ5s77J7lrDhx53T+17lm+lXQ27Lw8BjabfOn9PtKszvNWdHsClfZ/tVa/vVRvm8YhdCuIEQEQEQEQEQEQEQEQEQEQEQEQEQEQEQEQEQEQEQEQEQEQEQEQEQEQEQEQEQEQEQEQEQEQEQEQEQEQEQEQEQEQEQEQEQEQEQEQEQEQEQEQEQEQEQEQEQEQEQEQEQEQEQEQEQEQEQEQEQVFVjeKMg+TOfMT+Cp67jTqDV9IesA/HrlaQ3lE6xkHclKlgZlbrLclJqcLD7mKZScPQLUjxxxix0wmWBYazGseEDGmo4RF+feBvWzeClR1RgDr2BGe4dZ7e9a+jFVmaAkTbfbtQdLna2z/G749q6amHGGOvTcQSZ3c2/wByt+dbjen/APXo8ofWI+11hxFFjrkDODaZ9avmj8fiOLI1zZpEyfRsekT39W091RtNxBUHCoJqXFYKFvZ5CimymrQ4ykCMsICh2mGJHpI8S09gZ1wbwuFrObr0GGOi82M8nI7RN1h+m8fjRgK9Txh5ILyJm2qXREk3BAIOwiQsTbL/AFQctH9jevTO1n2xSjhVW4jU5gUdttY5NIqOtpDfcFrZwlDEVpaRpS4oy8EBnAR+jbY4yMsDyjSdVmCpP4igxsMdGz6sjIbFgfAx1fTWkzTxld72NqCAb5Om9xtC/nMWZ7rsyl7XHcmGJSxH9wX/ALWve4B5y0gz5U0q04tznFtVwBDiHC+xwMixiy9U4ZrcGymKIA1Q0ZATA2gCNi+VlDL2BlueVsbHE/8AZIz19cy39Iy3FaF0Ph8A2odH0a1TUnXqnWdMCDLg7I39quDcZWrAtc4gAHLcAD7M19hhNLHvpPdqU6QDSQBxbMgTH1dgEZexUxfUJ8s7d+3fdBfsPp3EsaGinRIs08hlxbPkZneuJfUg8s2vadg6SgrsW6jqFzMNSY4iSQBmcz5PX0lUoqVHEjXI27/jNBiGKrYjjGhlZzG64BaAIiekRYx3ynFl8y4mATt9/wAW3KuS5OGdmdoUZy9mWH3EBbbvmZeAX5uJfgHUzQABOrfK5MTYdZ35Lvp4SljaThWbrQCL3mI9i9r+xWVgXKvXEKSIi1LnZWtEll70dTVGYnrVUtF1ut5TyiiTE/Y29lYlYTUimeoJFZ2ltDaSX8ptoY/uBuLgnj62MpAVrjVNiZy1ub42Lzt4Q8LSwWIiiIl45vrc2eU7O+dQa4dGWqHv5WPCMsd+qsT0O7nLXdW+kaH+z+lTAXc+gXSz3nJP8Ix5M0x+s8b/ABj3NW7sF5ph/wCGPav/2Q==;" vertex="1" parent="8">
                    <mxGeometry x="290" y="90" width="280" height="136.77" as="geometry"/>
                </mxCell>
            </root>
        </mxGraphModel>
    </diagram>
</mxfile>